<?xml version="1.0" standalone="no"?>
<!DOCTYPE svg PUBLIC "-//W3C//DTD SVG 20010904//EN"
 "http://www.w3.org/TR/2001/REC-SVG-20010904/DTD/svg10.dtd">
<svg version="1.0" xmlns="http://www.w3.org/2000/svg"
 width="7811.000000pt" height="6640.000000pt" viewBox="0 0 7811.000000 6640.000000"
 preserveAspectRatio="xMidYMid meet" >

<g id="svg_logo_g" transform="translate(0.000000,6640.000000) scale(0.100000,-0.100000)"
fill="#E6A50F" stroke="none">
<path d="M22426 66390 c-614 -19 -1201 -60 -1801 -126 -126 -14 -231 -27 -233
-29 -4 -4 79 -2509 84 -2514 2 -3 109 8 237 22 1313 153 2471 177 3752 76
2271 -177 4519 -772 6650 -1760 261 -120 855 -419 1110 -557 1496 -809 2928
-1819 4248 -2996 l179 -159 27 29 c16 16 376 421 801 899 425 479 784 882 797
896 l23 25 -232 205 c-4091 3605 -8792 5647 -13703 5954 -579 36 -1419 51
-1939 35z"/>
<path d="M55580 66279 c0 -64 70 -2164 76 -2285 l6 -121 276 -12 c3731 -162
7354 -1410 10382 -3576 1425 -1019 2677 -2202 3755 -3545 947 -1181 1748
-2486 2370 -3860 188 -415 471 -1094 605 -1453 26 -70 36 -87 49 -82 31 12
2266 1208 2278 1219 17 16 -265 715 -517 1281 -1144 2572 -2817 4881 -4930
6805 -1710 1557 -3678 2835 -5833 3786 -2194 969 -4555 1577 -6947 1789 -448
39 -808 60 -1387 81 l-183 6 0 -33z"/>
<path d="M54350 66293 c-30 -1 -154 -7 -275 -13 -2445 -120 -4957 -685 -7266
-1636 -2578 -1061 -4948 -2576 -7129 -4558 -441 -400 -481 -443 -1379 -1451
-475 -533 -870 -977 -878 -986 -12 -15 18 -49 276 -310 159 -162 526 -546 815
-854 290 -308 531 -560 535 -560 5 0 267 275 582 610 801 853 1332 1381 1934
1920 2781 2491 5931 4163 9305 4939 1164 268 2344 424 3578 472 116 4 172 10
172 18 0 6 -18 542 -40 1191 -22 649 -40 1190 -40 1203 0 24 -12 25 -190 15z"/>
<path d="M19105 66043 c-2530 -461 -4913 -1330 -7119 -2597 -3210 -1844 -5868
-4453 -7696 -7556 -674 -1144 -1232 -2349 -1761 -3804 -60 -165 -109 -305
-109 -311 0 -9 2381 -945 2405 -945 6 0 32 62 59 138 211 598 502 1318 787
1947 1008 2226 2494 4259 4344 5946 2575 2347 5769 3958 9215 4649 112 23 205
42 207 43 4 5 -82 2526 -87 2530 -3 2 -113 -16 -245 -40z"/>
<path d="M21752 61268 c-292 -706 -1632 -3971 -1630 -3973 2 -1 23 -7 48 -14
142 -41 585 -303 960 -569 679 -481 1261 -1009 1655 -1502 206 -258 403 -600
481 -835 20 -60 37 -111 39 -113 1 -1 481 272 1066 607 l1064 609 7 48 c18
117 27 497 18 702 -61 1328 -594 2444 -1666 3492 -370 362 -704 638 -1394
1155 -190 142 -401 302 -470 355 -69 53 -130 99 -137 103 -7 5 -22 -18 -41
-65z"/>
<path d="M54225 60871 c-488 -623 -983 -1339 -1134 -1638 -92 -183 -158 -374
-376 -1082 -283 -919 -453 -1399 -596 -1682 -16 -32 -29 -62 -29 -67 0 -9 760
-362 778 -362 21 0 189 299 285 505 371 805 725 2083 1012 3657 55 302 127
740 122 744 -1 1 -29 -33 -62 -75z"/>
<path d="M56300 60754 c-145 -17 -166 -24 -182 -57 -30 -63 -768 -1744 -768
-1749 0 -3 93 -8 208 -11 594 -18 1198 -124 1604 -281 433 -167 719 -404 826
-684 35 -90 50 -157 60 -268 l7 -79 560 -61 c308 -34 563 -60 567 -58 20 13
112 466 140 694 20 159 17 578 -5 715 -50 313 -146 578 -293 803 -363 557
-1036 906 -1964 1018 -128 15 -673 28 -760 18z"/>
<path d="M13130 56484 c-540 -922 -980 -1677 -978 -1678 2 -2 199 -100 438
-219 785 -390 1347 -707 1900 -1072 659 -435 1215 -898 1652 -1373 l104 -114
1022 1718 1023 1718 -93 94 c-978 990 -2226 1825 -3618 2419 -203 87 -443 183
-458 183 -5 0 -452 -754 -992 -1676z"/>
<path d="M32087 57673 c-8 -13 -2129 -4675 -2144 -4713 -14 -34 -13 -36 37
-120 516 -853 1093 -3124 1564 -6155 281 -1804 484 -3636 571 -5140 30 -518
38 -779 40 -1285 l2 -515 622 -1519 c342 -835 625 -1525 629 -1532 5 -10 416
694 1221 2088 l1214 2103 -16 130 c-9 72 -109 868 -222 1769 -113 902 -202
1642 -198 1646 4 4 175 28 378 54 768 98 2263 297 3572 474 156 21 286 41 290
45 3 4 241 881 528 1950 442 1644 520 1942 506 1945 -9 2 -343 -40 -741 -92
-1704 -224 -3297 -423 -4852 -607 -104 -12 -190 -21 -192 -18 -2 2 -29 171
-60 374 -675 4428 -1500 7247 -2622 8953 -62 94 -115 172 -118 172 -3 0 -7 -3
-9 -7z"/>
<path d="M57901 57072 c-134 -274 -398 -552 -739 -780 -286 -192 -629 -363
-1023 -512 -430 -163 -1028 -328 -1493 -413 l-129 -23 -333 -995 c-184 -547
-334 -995 -334 -996 0 -5 328 85 490 134 1147 346 2223 867 3017 1461 254 190
453 361 663 572 352 351 590 664 802 1052 78 142 204 425 194 435 -3 3 -229
32 -503 64 -274 31 -516 60 -539 63 l-40 5 -33 -67z"/>
<path d="M45159 56554 c-24 -26 -188 -180 -364 -343 -410 -380 -529 -494 -677
-658 -242 -266 -401 -489 -519 -726 -56 -114 -93 -213 -185 -497 -451 -1384
-507 -1558 -608 -1885 -349 -1134 -522 -1943 -621 -2915 -40 -394 -51 -656
-37 -898 37 -640 194 -1121 498 -1533 96 -131 308 -341 442 -439 109 -80 350
-222 366 -217 8 3 1165 2193 1166 2208 0 3 -26 16 -57 29 -102 41 -288 138
-374 196 -441 295 -690 739 -750 1339 -15 148 -6 553 15 714 65 490 312 1519
566 2364 286 947 660 1998 1085 3043 58 142 104 259 102 260 -2 2 -23 -17 -48
-42z"/>
<path d="M65390 56198 c-102 -61 -374 -223 -605 -361 -1407 -838 -2349 -1459
-2908 -1917 -75 -61 -167 -144 -203 -184 -222 -239 -460 -756 -650 -1409 -30
-103 -54 -190 -54 -193 0 -3 69 65 153 152 436 451 931 845 1605 1278 501 322
934 568 2164 1231 l408 220 16 55 c68 231 205 818 248 1060 28 154 30 181 19
179 -5 0 -91 -50 -193 -111z"/>
<path d="M51615 55765 c-380 -382 -629 -562 -1350 -975 -507 -290 -672 -402
-909 -614 -229 -205 -471 -532 -633 -852 l-66 -130 -135 -12 c-383 -35 -750
-160 -1127 -384 -479 -285 -932 -735 -1269 -1260 l-56 -87 33 -6 c53 -9 945
-105 975 -105 20 0 41 14 77 51 78 79 230 190 340 246 185 95 334 133 519 133
138 0 237 -23 352 -81 217 -108 353 -292 385 -520 l12 -86 481 -52 c264 -29
495 -54 513 -57 l31 -6 36 109 c42 131 89 300 111 406 l17 78 32 -6 c17 -3
112 -14 211 -25 523 -59 760 -110 948 -207 199 -103 287 -238 287 -444 0 -64
3 -89 13 -89 6 0 247 -27 535 -58 l523 -58 44 141 c126 396 180 794 156 1135
-13 178 -36 282 -85 385 -78 163 -191 273 -372 363 -219 109 -440 158 -1014
222 -313 35 -489 62 -603 91 -372 95 -527 254 -527 540 l0 97 136 72 c681 358
1421 908 1932 1435 176 182 410 450 400 460 -5 6 -730 346 -743 349 -5 1 -100
-88 -210 -199z"/>
<path d="M24083 53707 l-1192 -683 -93 -90 c-329 -320 -764 -614 -1878 -1271
-536 -316 -738 -438 -990 -596 -1181 -742 -1903 -1395 -2372 -2147 -294 -472
-618 -1051 -829 -1485 -368 -756 -573 -1347 -661 -1904 -32 -203 -32 -569 0
-729 71 -353 231 -597 510 -783 612 -406 1738 -652 3407 -744 298 -16 1063
-40 1069 -34 6 6 1386 3998 1386 4009 0 4 -120 10 -267 14 -1086 25 -1645 53
-2278 116 -319 32 -765 90 -765 99 1 3 53 49 116 101 283 232 601 446 1404
940 1139 702 1760 1151 2333 1684 698 651 1211 1327 1612 2121 307 609 530
1257 675 1959 23 113 22 106 13 106 -5 0 -545 -308 -1200 -683z"/>
<path d="M55288 52562 c-299 -308 -753 -1014 -1087 -1692 -213 -431 -202 -395
-496 -1640 -467 -1982 -710 -2861 -1015 -3672 -38 -100 -67 -185 -65 -187 6
-6 838 -261 851 -261 25 0 268 644 414 1095 359 1109 596 2110 1010 4250 211
1094 311 1579 411 1994 21 90 38 166 36 167 -2 2 -28 -22 -59 -54z"/>
<path d="M10321 51278 c-755 -2279 -1199 -3869 -1204 -4313 l-1 -100 61 -110
c89 -162 287 -561 391 -790 588 -1298 1045 -2863 1397 -4780 192 -1048 313
-1878 555 -3831 66 -532 122 -970 125 -972 7 -8 2560 2200 2563 2217 2 9 -29
201 -67 427 -73 426 -176 1058 -356 2179 -368 2292 -607 3589 -881 4770 -618
2660 -1354 4428 -2333 5603 -56 67 -104 122 -106 122 -2 0 -67 -190 -144 -422z"/>
<path d="M74600 50967 c-630 -337 -1150 -616 -1156 -619 -8 -6 2 -49 33 -145
914 -2845 1230 -5772 938 -8698 -347 -3476 -1558 -7035 -3617 -10634 -99 -173
-164 -299 -159 -304 5 -5 469 -350 1032 -767 773 -573 1027 -756 1035 -747 16
17 352 609 523 920 329 602 726 1379 994 1947 1668 3541 2594 7015 2791 10475
31 534 39 910 33 1594 -6 679 -10 819 -47 1381 -119 1792 -446 3584 -975 5344
-83 275 -272 866 -278 866 -1 0 -517 -276 -1147 -613z"/>
<path d="M68387 51313 c-36 -60 -131 -225 -212 -368 -81 -143 -177 -307 -213
-365 -235 -377 -436 -585 -674 -694 -114 -53 -179 -67 -333 -73 -159 -6 -244
6 -411 58 -124 39 -150 36 -234 -27 -111 -84 -213 -213 -505 -639 -277 -405
-428 -591 -568 -700 -31 -25 -130 -199 -586 -1025 -301 -547 -545 -998 -542
-1002 16 -19 164 -41 276 -41 129 0 195 10 320 50 387 123 846 516 1370 1171
l98 123 56 -8 c103 -15 279 -8 372 15 453 110 947 572 1378 1286 341 564 611
1249 676 1714 22 157 17 317 -13 384 -20 47 -169 248 -183 248 -4 0 -37 -48
-72 -107z"/>
<path d="M57048 51210 c-42 -4 -88 -10 -101 -14 -21 -5 -72 -115 -414 -893
l-391 -888 232 -11 c910 -45 1576 -209 2006 -495 125 -83 279 -238 342 -344
65 -111 107 -242 116 -363 l7 -97 515 -57 c283 -31 533 -57 556 -57 l41 -1 21
93 c30 132 58 291 78 452 22 168 25 560 6 705 -66 507 -257 902 -589 1221
-344 330 -809 553 -1406 675 -328 66 -765 98 -1019 74z"/>
<path d="M45781 50887 c-174 -399 -292 -821 -321 -1149 -18 -208 16 -430 86
-571 132 -263 401 -436 824 -528 58 -12 109 -26 113 -29 9 -8 -179 -70 -298
-100 -285 -70 -495 -75 -870 -18 -77 12 -153 22 -168 22 -27 1 -45 -31 -622
-1119 -327 -616 -591 -1123 -587 -1127 12 -12 279 -57 402 -68 167 -15 459
-12 626 5 666 70 1300 344 1934 834 408 316 916 821 1370 1362 l105 126 205 6
c113 4 507 11 875 17 369 6 828 14 1020 18 l350 7 70 33 c345 163 833 660
1169 1191 76 119 227 384 222 388 -3 4 -1020 123 -1022 120 0 -1 -18 -33 -39
-72 -21 -38 -54 -96 -73 -128 l-35 -59 -201 7 c-110 4 -495 2 -855 -5 -359 -6
-656 -9 -659 -5 -3 3 31 80 76 173 111 229 124 262 109 267 -16 5 -886 105
-913 105 -16 0 -26 -15 -48 -67 -33 -81 -117 -235 -195 -355 l-56 -88 -45 0
c-64 0 -367 36 -510 60 -525 90 -844 254 -932 480 -14 38 -22 83 -24 145 -2
63 -7 91 -16 92 -7 2 -229 28 -493 58 -264 30 -492 57 -507 59 -25 5 -28 0
-67 -87z"/>
<path d="M2082 50748 c-126 -432 -196 -682 -252 -898 -402 -1534 -651 -3093
-745 -4665 -54 -917 -54 -1942 1 -2855 271 -4517 1773 -9053 4521 -13653 96
-161 128 -207 141 -202 21 8 2151 1345 2156 1354 2 3 -89 162 -203 351 -1865
3109 -3097 6167 -3696 9175 -288 1446 -425 2818 -425 4260 0 1210 89 2293 286
3470 150 897 380 1889 628 2698 13 43 13 48 -2 56 -10 5 -550 217 -1202 471
-652 254 -1188 464 -1192 466 -4 3 -11 -10 -16 -28z"/>
<path d="M63460 48784 c-629 -57 -1240 -351 -1770 -851 -312 -293 -464 -474
-890 -1058 -780 -1069 -1503 -1927 -2105 -2497 -110 -105 -200 -194 -200 -198
0 -8 871 -863 884 -868 4 -1 75 75 158 170 449 518 845 1032 1263 1643 488
713 870 1127 1304 1416 303 202 593 300 883 300 202 1 351 -33 551 -126 53
-24 100 -41 104 -37 7 7 1038 1893 1038 1898 0 6 -72 34 -180 70 -133 45 -354
98 -490 119 -101 16 -454 28 -550 19z"/>
<path d="M29995 47664 c-2190 -206 -4348 -341 -6165 -385 -256 -6 -465 -12
-466 -13 -1 0 -292 -845 -649 -1876 -356 -1031 -669 -1938 -696 -2014 l-48
-139 332 7 c2117 43 4750 236 7942 581 176 19 390 42 475 50 85 9 162 19 171
23 14 6 -10 225 -202 1907 -119 1045 -218 1901 -218 1903 -1 1 -4 1 -8 1 -5
-1 -215 -21 -468 -45z"/>
<path d="M50750 47601 c-376 -142 -534 -220 -725 -356 -271 -193 -412 -359
-980 -1150 -733 -1021 -1102 -1473 -1639 -2010 -254 -254 -406 -394 -590 -545
-42 -35 -75 -64 -74 -65 2 -1 187 -174 411 -383 224 -210 412 -382 417 -382 5
0 69 66 143 148 467 511 868 1027 1313 1687 301 447 490 750 1059 1690 381
630 696 1137 883 1423 12 18 12 22 1 21 -8 0 -106 -35 -219 -78z"/>
<path d="M58681 47514 c-151 -297 -432 -577 -831 -826 -573 -357 -1415 -660
-2350 -843 -102 -20 -188 -39 -191 -43 -11 -13 -661 -1973 -656 -1978 9 -9
444 103 686 176 1251 379 2320 927 3122 1601 169 142 496 468 621 619 320 388
548 774 692 1172 l35 96 -37 6 c-20 3 -251 31 -512 61 -261 30 -487 56 -501
58 -24 3 -30 -6 -78 -99z"/>
<path d="M71889 45839 c-302 -228 -972 -682 -1529 -1036 -2063 -1311 -4552
-2698 -7112 -3962 l-575 -285 -7 -80 c-9 -127 -7 -3956 3 -3956 16 0 1399 695
1801 905 2483 1298 4608 2579 6435 3878 116 82 212 151 213 152 5 4 871 4449
868 4452 -1 2 -45 -29 -97 -68z"/>
<path d="M52337 44743 c-255 -508 -620 -1042 -1019 -1488 -747 -836 -1710
-1443 -2737 -1726 -251 -69 -637 -139 -767 -139 -33 0 -46 -4 -52 -17 -3 -10
-153 -472 -333 -1028 -221 -683 -323 -1011 -314 -1013 21 -5 433 104 615 163
786 256 1610 667 2305 1151 461 321 842 640 1245 1044 685 684 1211 1403 1688
2305 126 239 315 635 307 643 -4 4 -843 272 -852 272 -1 0 -40 -75 -86 -167z"/>
<path d="M58070 43828 c-19 -16 -111 -87 -205 -158 -954 -719 -2018 -1174
-3366 -1439 -112 -23 -240 -46 -283 -53 -49 -8 -82 -19 -87 -28 -5 -8 -157
-467 -339 -1020 -182 -553 -333 -1011 -336 -1019 -4 -12 31 -13 223 -8 1572
40 3210 817 4783 2268 80 73 244 231 365 351 l220 217 -430 424 c-236 233
-448 439 -470 459 l-40 36 -35 -30z"/>
<path d="M46180 43063 c-1167 -790 -2525 -1205 -4068 -1242 l-262 -6 -595
-1090 c-515 -942 -593 -1091 -578 -1099 23 -12 472 0 693 19 1268 111 2637
511 3715 1083 554 294 968 581 1515 1051 214 185 610 550 610 563 0 7 -859
822 -869 825 -3 0 -76 -46 -161 -104z"/>
<path d="M23150 41060 c-1210 -100 -2308 -706 -3301 -1820 -897 -1008 -1671
-2457 -2163 -4053 -46 -150 -101 -335 -122 -412 -21 -77 -43 -143 -48 -147
-16 -11 -289 -76 -391 -93 -230 -38 -502 -46 -697 -20 -763 101 -1300 631
-1667 1643 -106 295 -228 762 -321 1231 -22 113 -42 206 -44 208 -4 4 -2520
-2160 -2584 -2221 l-32 -32 45 -294 c192 -1234 375 -1903 700 -2565 523 -1066
1278 -1713 2285 -1959 175 -43 333 -70 540 -93 214 -23 698 -23 940 1 509 49
1044 158 1595 325 329 99 403 112 641 112 180 0 317 -17 501 -62 730 -178
1573 -721 2441 -1574 284 -279 552 -571 690 -753 l55 -72 46 27 c767 446 1416
1365 1870 2650 112 317 281 921 281 1004 0 58 -169 351 -318 552 -244 329
-594 683 -972 983 -704 559 -1652 1060 -2685 1419 -60 21 -114 42 -119 46 -11
10 21 65 137 239 167 250 356 486 561 698 775 801 1643 1116 2501 908 77 -19
103 -22 111 -13 16 17 1784 3253 1784 3265 0 11 -221 214 -350 321 -321 268
-671 453 -952 505 -231 43 -713 66 -958 46z"/>
<path d="M61590 40044 c-3912 -1827 -7802 -3237 -11290 -4093 -529 -130 -1463
-340 -1722 -386 l-38 -7 0 -2103 0 -2102 325 78 c3856 926 8365 2543 12613
4521 l322 150 0 2019 c0 1111 -1 2019 -2 2019 -2 0 -95 -43 -208 -96z"/>
<path d="M26028 39504 c-3 -5 -360 -657 -793 -1449 -433 -792 -798 -1458 -810
-1481 l-24 -40 77 -60 c114 -88 313 -291 434 -442 243 -305 392 -551 860
-1422 203 -376 313 -568 444 -768 486 -742 998 -1104 1669 -1182 125 -15 405
-15 550 0 780 78 1677 448 2494 1029 701 498 1325 1139 1824 1873 59 86 107
161 107 168 0 11 -1078 2651 -1086 2659 -2 2 -30 -25 -61 -60 -190 -214 -459
-424 -782 -609 -584 -335 -1384 -603 -2081 -696 -177 -24 -464 -24 -549 -1
-274 75 -616 395 -1172 1097 -63 80 -231 296 -374 480 -142 184 -356 456 -474
604 -119 148 -223 278 -232 289 -9 11 -18 16 -21 11z"/>
<path d="M34861 37454 l-1173 -2035 62 -122 c380 -739 860 -1447 1405 -2074
168 -194 652 -676 832 -831 857 -734 1715 -1215 2713 -1522 1715 -529 4210
-542 7235 -39 475 79 1623 296 1716 324 14 5 17 198 23 2116 4 1161 5 2113 3
2116 -3 2 -185 -25 -404 -61 -821 -135 -1461 -220 -2173 -291 -1328 -131
-2748 -171 -3530 -100 -1880 172 -3495 1033 -4547 2425 -359 476 -637 1002
-824 1560 -62 187 -149 501 -149 542 0 9 -3 19 -8 22 -4 2 -535 -911 -1181
-2030z"/>
<path d="M68653 36806 c-2616 -2106 -7196 -4553 -11971 -6396 l-293 -113 6
-136 c3 -75 12 -1000 21 -2056 8 -1056 18 -1943 22 -1972 l7 -51 505 202
c1681 675 3118 1322 4660 2097 2135 1073 4035 2194 5730 3382 263 185 747 534
796 575 19 15 50 219 348 2300 180 1256 326 2285 324 2287 -2 2 -71 -52 -155
-119z"/>
<path d="M32485 31028 c-1193 -1027 -1997 -1784 -2082 -1963 l-15 -31 -71 8
c-124 15 -451 11 -602 -7 -464 -54 -916 -197 -1430 -450 -561 -277 -1128 -670
-1664 -1153 -158 -143 -521 -508 -662 -667 -561 -631 -989 -1262 -1344 -1980
-610 -1234 -1002 -2658 -1080 -3925 l-7 -105 60 60 c94 95 2031 2084 2311
2373 139 145 256 261 258 258 3 -2 47 29 100 70 569 445 1377 755 2203 845
150 17 576 17 705 0 284 -36 489 -95 711 -205 526 -262 1078 -778 1653 -1545
169 -227 454 -650 584 -868 l85 -143 123 78 c626 391 1238 1066 1808 1992 56
91 105 168 109 172 4 4 70 -24 147 -62 157 -77 388 -174 587 -248 241 -90 461
-163 468 -155 8 10 1929 4077 1932 4093 2 7 -71 33 -187 66 -882 254 -1683
614 -2357 1061 -924 611 -1645 1417 -2124 2374 -46 93 -85 169 -87 169 -1 0
-60 -51 -132 -112z"/>
<path d="M55260 29879 c-1172 -428 -2666 -911 -3935 -1272 -4446 -1265 -8363
-1789 -11475 -1536 -444 36 -821 81 -1243 150 -137 22 -251 38 -254 35 -10
-10 534 -4548 547 -4556 6 -4 48 -10 93 -13 45 -4 197 -16 337 -27 1656 -130
3443 -73 5225 166 2432 326 5307 1011 8285 1974 826 268 1676 563 2603 905
l127 47 0 277 c-1 215 -38 3928 -40 3939 -1 8 -49 -8 -270 -89z"/>
<path d="M70077 29658 c-8 -12 -85 -133 -170 -268 -1554 -2466 -3611 -5092
-5907 -7540 -846 -903 -2034 -2091 -3000 -3000 -1172 -1104 -2430 -2217 -3822
-3383 -170 -142 -308 -260 -308 -262 0 -5 1842 -1810 1851 -1813 5 -2 77 54
161 124 1622 1357 2969 2557 4418 3939 386 368 1733 1711 2086 2080 2170 2270
3943 4420 5534 6715 490 707 1253 1882 1233 1900 -4 4 -462 344 -1018 755
-555 411 -1018 754 -1027 762 -15 13 -18 12 -31 -9z"/>
<path d="M7380 28270 c-596 -375 -1086 -683 -1088 -685 -9 -9 575 -891 898
-1355 1469 -2116 3187 -4221 5100 -6250 774 -821 1935 -1981 2805 -2806 1046
-990 2202 -2026 3378 -3026 768 -654 1904 -1591 1922 -1585 13 4 1705 1917
1705 1928 0 4 -158 137 -351 294 -4000 3271 -7244 6419 -9874 9580 -1209 1453
-2192 2766 -3163 4223 -133 199 -243 362 -245 362 -1 0 -490 -306 -1087 -680z"/>
<path d="M18204 27714 c-379 -647 -694 -1184 -700 -1193 -11 -14 -19 -10 -70
27 -140 101 -594 398 -754 494 -562 336 -1161 632 -1779 880 -108 43 -177 66
-183 60 -5 -5 -450 -761 -988 -1678 l-977 -1669 326 -161 c1385 -682 2339
-1284 3116 -1965 146 -128 451 -428 573 -564 45 -49 83 -87 85 -85 2 3 379
635 837 1405 458 770 838 1406 844 1413 9 9 64 -19 258 -137 604 -364 1074
-699 1528 -1089 132 -113 544 -518 649 -636 29 -33 56 -55 60 -50 5 5 466 778
1026 1718 l1017 1709 -54 54 c-106 110 -417 400 -578 541 -950 832 -2060 1506
-3314 2013 -121 49 -222 89 -226 89 -4 0 -317 -529 -696 -1176z"/>
<path d="M36926 24494 c-670 -1419 -715 -1517 -1097 -2412 -291 -683 -396
-938 -390 -950 100 -189 478 -4431 781 -8762 43 -625 58 -784 95 -1020 185
-1193 682 -2316 1391 -3146 123 -143 423 -439 556 -548 554 -452 1172 -739
1833 -850 274 -46 351 -51 730 -51 447 0 705 25 1103 106 499 101 932 250
1407 484 553 273 1006 588 1493 1037 149 137 432 429 503 519 l29 37 -1020
1234 c-562 678 -1026 1232 -1033 1231 -7 -1 -75 -30 -152 -66 -359 -165 -751
-278 -1125 -323 -162 -19 -499 -22 -650 -5 -773 88 -1406 473 -1889 1149 -332
465 -599 1135 -749 1877 -70 342 -199 1896 -362 4330 -150 2239 -217 3053
-326 3960 -19 160 -40 335 -45 390 -12 126 -369 3166 -378 3219 -6 37 -44 -40
-705 -1440z"/>
<path d="M55353 23268 c-6 -7 -320 -542 -698 -1188 -378 -646 -689 -1177 -691
-1179 -2 -2 -30 15 -61 38 -32 23 -170 117 -308 209 -635 426 -1310 785 -2070
1102 -238 99 -333 135 -340 128 -10 -9 -1966 -3351 -1963 -3353 2 -1 158 -78
348 -172 1682 -826 2840 -1615 3615 -2463 117 -128 131 -140 142 -123 7 10
386 646 843 1413 518 870 836 1395 845 1394 18 -2 330 -189 570 -342 467 -297
905 -625 1285 -962 140 -124 445 -427 564 -560 32 -36 60 -60 63 -55 2 6 462
780 1023 1720 l1018 1710 -41 44 c-91 94 -431 413 -587 549 -957 837 -2067
1512 -3322 2018 -114 46 -211 84 -216 84 -5 0 -14 -6 -19 -12z"/>
<path d="M24596 20610 c-639 -654 -1006 -1038 -1006 -1050 0 -32 49 -276 80
-400 335 -1333 1982 -3050 4980 -5192 966 -690 1853 -1280 3520 -2343 421
-268 854 -546 964 -617 109 -71 200 -127 201 -126 7 7 -41 1286 -75 2008 -34
710 -89 1608 -120 1940 -6 58 -10 110 -10 116 0 7 -64 54 -142 105 -410 268
-1328 893 -1863 1268 -2829 1982 -4441 3442 -5210 4716 -78 130 -219 406 -266
523 -18 45 -36 82 -40 82 -4 0 -460 -464 -1013 -1030z"/>
<path d="M43426 19718 c-397 -76 -1075 -889 -1753 -2103 -561 -1005 -969
-1985 -1120 -2685 -26 -122 -26 -440 1 -560 43 -199 138 -421 251 -589 449
-669 1371 -1157 2380 -1262 178 -18 531 -16 705 5 397 47 746 159 1049 337
l54 31 -58 -83 c-214 -308 -560 -673 -858 -906 l-28 -22 921 -1113 c506 -612
924 -1114 929 -1116 5 -2 59 76 120 172 574 905 1007 1995 1226 3091 144 720
159 1600 40 2424 -206 1424 -738 2598 -1526 3366 -586 571 -1274 900 -2102
1005 -173 22 -162 22 -231 8z"/>
<path d="M55589 14172 c-1781 -1433 -3880 -3007 -6019 -4514 -2854 -2009
-5915 -4009 -9312 -6084 -178 -108 -225 -141 -215 -150 6 -7 549 -341 1206
-744 657 -403 1204 -738 1215 -745 19 -13 29 -9 106 39 47 30 384 240 750 468
5178 3229 9741 6414 13705 9567 383 304 885 710 885 716 0 8 -1844 1810 -1854
1812 -6 1 -216 -163 -467 -365z"/>
<path d="M22065 12875 c-467 -529 -850 -967 -850 -973 0 -28 1711 -1350 2735
-2114 3466 -2582 7165 -5083 11421 -7721 1503 -931 1843 -1124 3175 -1806
l512 -261 120 55 c449 205 954 460 1372 693 287 160 939 549 940 562 0 3
-1024 633 -2275 1400 -1251 767 -2275 1400 -2275 1405 0 6 -157 107 -348 224
-4889 3020 -9643 6316 -13447 9321 -115 91 -214 169 -220 172 -5 3 -392 -427
-860 -957z"/>
</g>
</svg>
