<?xml version="1.0" standalone="no"?>
<!DOCTYPE svg PUBLIC "-//W3C//DTD SVG 1.1//EN" "http://www.w3.org/Graphics/SVG/1.1/DTD/svg11.dtd" >
<svg xmlns="http://www.w3.org/2000/svg" xmlns:xlink="http://www.w3.org/1999/xlink" version="1.1">
<metadata>
Created by FontForge 20190801 at Sat Mar  7 02:46:19 2020
 By Unknown

saeed poonaki
</metadata>
<defs>
<font id="arshidsepahbod-bold" horiz-adv-x="0" >
  <font-face 
    font-family="arshid sepahbod"
    font-weight="700"
    font-stretch="normal"
    units-per-em="2048"
    panose-1="0 0 0 0 0 0 0 0 0 0"
    ascent="1638"
    descent="-410"
    bbox="-183 -1357 2958 2728"
    underline-thickness="100"
    underline-position="-770"
    stemh="20"
    stemv="127"
    unicode-range="U+0020-FEFC"
  />
<missing-glyph horiz-adv-x="1024" 
d="M896 0h-768v1278h768v-1278zM256 1150v-1022h512v1022h-512z" />
    <glyph glyph-name="uniFC60" unicode="&#x651;&#x64e;" arabic-form="isolated" 
d="M262 1576c-121 0 -148 132 -152 230l127 6c3 -59 9 -99 24 -108c8 -5 26 1 57 20c-6 25 -10 52 -11 82l127 6c1 -21 9 -92 32 -103c4 -2 11 -2 21 1c9 3 19 7 30 14l-38 116l122 39l42 -130c15 -47 -2 -95 -42 -123c-36 -26 -81 -47 -126 -47c-35 0 -68 13 -95 34
c-45 -25 -84 -37 -118 -37zM0 1992l552 140l28 -116l-549 -137z" />
    <glyph glyph-name="uniFC61" unicode="&#x651;&#x64f;" arabic-form="isolated" 
d="M392 2463c7 -8 17 -16 28 -23c17 19 26 39 26 57c0 7 0 10 -1 10c-1 1 -5 2 -9 2c-16 0 -52 -11 -56 -28c-1 -2 4 -8 12 -18zM271 2103l127 5c1 -21 9 -91 32 -103c4 -2 11 -3 22 1c9 3 18 8 29 14l-38 117l122 39l42 -131c15 -46 -1 -96 -42 -123
c-37 -25 -82 -46 -127 -46c-33 0 -69 12 -93 34c-45 -26 -84 -38 -118 -38c-121 0 -149 134 -153 231l127 5c3 -58 11 -97 24 -107c8 -6 26 0 57 19c-6 25 -10 53 -11 83zM316 2360c-7 6 -13 12 -19 19c-36 40 -50 88 -42 128c16 82 106 129 184 129c79 0 133 -57 135 -137
c3 -154 -200 -276 -310 -313l-3 -1l-58 114l3 1c31 10 70 36 110 60z" />
    <glyph glyph-name="uniE818" unicode="&#x651;&#x64b;" 
d="M174 1927c-121 0 -149 134 -154 231l128 5c2 -58 10 -97 24 -107c8 -6 26 0 57 19c-7 25 -10 53 -12 83l128 5c1 -23 7 -90 32 -103c4 -2 11 -2 21 1c9 3 19 8 30 14l-38 117l121 39l42 -131c15 -46 -1 -95 -42 -123c-39 -26 -81 -46 -128 -46c-30 0 -69 13 -92 34
c-45 -26 -83 -38 -117 -38zM84 2330l367 211l64 -110l-367 -212zM132 2405l-64 111l366 212l64 -111z" />
    <glyph glyph-name="uniFC5E" unicode="&#x651;&#x64c;" arabic-form="isolated" 
d="M184 2131l-58 114l2 1c30 15 70 36 110 59l-19 19c-38 38 -50 88 -42 129c11 55 60 101 115 118c22 7 46 12 69 11c80 -3 133 -55 135 -137c3 -154 -206 -261 -310 -313zM251 1610c-121 0 -148 132 -152 230l127 6c3 -59 9 -99 24 -108c8 -5 26 1 57 20
c-6 25 -10 52 -11 82l127 6c1 -21 9 -92 32 -103c4 -2 11 -2 21 1c9 3 19 7 30 14l-38 116l122 39l42 -130c15 -47 -2 -95 -42 -123c-36 -26 -81 -47 -126 -47c-35 0 -68 13 -95 34c-45 -25 -84 -37 -118 -37zM83 2381c-12 45 -9 93 9 137c41 103 138 157 240 183l14 -55
c-80 -20 -171 -66 -202 -148c-13 -34 -14 -70 -6 -103c5 -21 14 -42 28 -61l-46 -32c-18 24 -30 51 -37 79zM302 2427c0 -9 32 -36 40 -41c17 19 27 38 27 57c0 7 -1 10 -1 10c-2 1 -5 1 -9 2c-15 0 -53 -13 -57 -28z" />
    <glyph glyph-name="uniFC62" unicode="&#x651;&#x650;" arabic-form="isolated" 
d="M182 2328c-120 0 -148 135 -153 231l128 5c2 -58 10 -97 24 -107c8 -6 26 0 57 19c-7 25 -10 53 -12 83l128 5c1 -23 7 -90 32 -103c4 -2 11 -2 21 1c9 3 19 8 30 14l-38 117l121 39l42 -131c15 -46 -1 -95 -42 -123c-39 -26 -81 -46 -128 -46c-30 0 -69 13 -92 34
c-45 -26 -84 -38 -118 -38zM154 1929l-64 111l366 211l64 -110z" />
    <glyph glyph-name="uniFC5F" unicode="&#x651;&#x64d;" arabic-form="isolated" 
d="M175 2174c-121 0 -148 134 -152 231l127 5c3 -59 9 -99 24 -108c8 -5 26 1 57 20c-6 25 -10 52 -11 83l127 5c1 -23 7 -91 32 -103c4 -2 11 -2 21 1c9 3 19 7 30 14l-38 117l122 39l42 -131c15 -46 -1 -96 -42 -123c-39 -26 -81 -46 -129 -46c-34 0 -66 11 -92 34
c-45 -26 -84 -38 -118 -38zM65 1713l367 212l64 -110l-367 -212zM49 1899l367 212l64 -110l-367 -212z" />
    <glyph glyph-name="uniFEF5" unicode="&#xfedf;&#xfe82;" horiz-adv-x="1287" arabic-form="isolated" 
d="M93 422c30 5 58 11 86 17c97 21 171 81 212 172c41 90 39 185 -8 273c-57 105 -126 206 -199 290l274 328c140 -148 267 -340 353 -527c29 113 36 241 37 392l427 135c22 -434 -30 -723 -203 -982c-22 -33 -45 -65 -70 -95h183v-425h-1055zM97 1618c2 9 12 74 15 88
c16 76 39 187 137 187c45 0 85 -24 119 -51c42 -34 90 -47 139 -47c75 0 151 30 216 64c12 6 25 9 38 9c27 0 54 -13 69 -38l44 -71c-110 -69 -239 -126 -371 -126c-78 0 -155 21 -226 74c-3 -14 -6 -28 -8 -41c-4 -23 -16 -42 -36 -54c-19 -12 -41 -16 -63 -11zM687 611
c-58 0 -105 -47 -105 -105s47 -105 105 -105s105 47 105 105s-47 105 -105 105z" />
    <glyph glyph-name="uniFEF6" unicode="&#xfee0;&#xfe82;" horiz-adv-x="1702" arabic-form="final" 
d="M499 498c-40 227 -228 540 -400 687l277 320c196 -168 374 -443 468 -687c8 26 16 53 24 83c40 151 48 311 48 467l437 137c13 -79 22 -176 31 -283c21 -237 49 -535 122 -691c21 -45 46 -103 138 -106h74c32 0 57 -25 57 -56v-312c0 -31 -26 -57 -57 -57h-105
c-247 0 -417 170 -507 387c-129 -183 -283 -253 -501 -301c-82 -18 -161 -29 -253 -46c-21 -4 -43 -8 -124 -22l-73 419c115 20 230 37 344 61zM99 1616c3 8 12 73 15 87c12 57 26 121 62 156c28 27 63 38 107 28c26 -6 54 -21 88 -48c41 -34 89 -47 138 -47
c74 0 152 30 217 64c12 7 26 10 38 10c27 0 53 -14 68 -38l45 -71c-110 -70 -238 -127 -371 -127c-78 0 -155 21 -226 74c-3 -13 -7 -27 -9 -41c-4 -23 -16 -41 -35 -54c-20 -13 -41 -17 -64 -11z" />
    <glyph glyph-name="uniFEF7" unicode="&#xfedf;&#xfe84;" horiz-adv-x="1286" arabic-form="isolated" 
d="M130 0l-37 422c30 5 58 11 86 17c97 21 171 81 212 172c41 90 39 185 -8 273c-57 105 -126 206 -199 290l274 328c140 -148 267 -340 353 -527c29 113 36 241 37 392l427 135c22 -434 -30 -723 -203 -982c-22 -33 -45 -65 -70 -95h183v-425h-1055zM513 1701
c28 30 57 54 87 73c-25 21 -35 54 -17 103c22 59 57 134 130 134c33 0 71 -18 113 -62l-76 -74c-12 10 -23 15 -32 15s-16 -5 -22 -18c-14 -28 8 -36 37 -36c37 0 74 7 110 14l15 -106c-107 -15 -191 -33 -267 -115zM687 611c-58 0 -105 -47 -105 -105s47 -105 105 -105
s105 47 105 105s-47 105 -105 105z" />
    <glyph glyph-name="uniFEF8" unicode="&#xfee0;&#xfe84;" horiz-adv-x="1689" arabic-form="final" 
d="M99 1185l277 320c196 -168 374 -443 468 -687c8 26 16 53 24 83c40 151 48 311 48 467l437 137c13 -79 22 -176 31 -283c21 -237 49 -535 122 -691c21 -45 46 -103 138 -106h74c32 0 57 -25 57 -56v-312c0 -31 -26 -57 -57 -57h-105c-247 0 -417 170 -507 387
c-129 -183 -283 -253 -501 -301c-82 -18 -161 -29 -253 -46c-21 -4 -43 -8 -124 -22l-73 419c115 20 230 37 344 61c-40 227 -228 540 -400 687zM643 1520l-79 72c29 31 57 55 87 74c-25 21 -34 54 -16 103c22 58 57 134 130 134c33 0 69 -19 112 -63l-76 -74
c-12 10 -22 16 -31 16s-17 -6 -23 -18c-14 -29 8 -36 38 -36c28 0 63 6 80 9c10 2 20 3 29 4l16 -105h-1c-108 -15 -190 -32 -266 -116z" />
    <glyph glyph-name="uniFEF9" unicode="&#xfedf;&#xfe88;" horiz-adv-x="1280" arabic-form="isolated" 
d="M93 422c30 5 58 11 86 17c97 21 171 81 212 172c41 90 39 185 -8 273c-57 105 -126 206 -199 290l274 328c140 -148 267 -340 353 -527c29 113 36 241 37 392l427 135c22 -434 -30 -723 -203 -982c-22 -33 -45 -65 -70 -95h183v-425h-1055zM441 -458c28 31 57 55 87 74
c-25 21 -35 54 -17 103c22 58 57 134 130 134c33 0 70 -19 113 -63l-76 -74c-12 10 -23 16 -32 16s-16 -6 -22 -18c-14 -29 8 -36 38 -36c28 0 63 7 80 9c9 1 19 3 29 4l15 -105c-107 -15 -192 -32 -267 -116zM582 506c0 -58 47 -105 105 -105s105 47 105 105
s-47 105 -105 105s-105 -47 -105 -105z" />
    <glyph glyph-name="uniFEFA" unicode="&#xfee0;&#xfe88;" horiz-adv-x="1638" arabic-form="final" 
d="M64 1185l277 320c196 -168 374 -443 468 -687c8 26 16 53 24 83c40 151 48 311 48 467l437 137c13 -79 22 -176 31 -283c21 -237 49 -535 122 -691c21 -45 46 -103 138 -106h74c32 0 57 -25 57 -56v-312c0 -31 -26 -57 -57 -57h-105c-247 0 -417 170 -507 387
c-129 -183 -283 -253 -501 -301c-82 -18 -161 -29 -253 -46c-21 -4 -43 -8 -124 -22l-73 419c115 20 230 37 344 61c-40 227 -228 540 -400 687zM614 -315c29 31 57 55 87 74c-25 21 -36 54 -17 103c22 58 58 133 130 133c33 0 70 -18 113 -62l-76 -74c-12 10 -22 16 -31 16
s-17 -6 -23 -19c-13 -28 8 -36 38 -36c28 0 63 8 80 10c10 1 19 3 29 4l16 -105h-1c-110 -15 -188 -31 -266 -116z" />
    <glyph glyph-name="uniFEFB" unicode="&#xfedf;&#xfe8e;" horiz-adv-x="1266" arabic-form="isolated" 
d="M93 422c30 5 58 11 86 17c97 21 171 81 212 172c41 90 39 185 -8 273c-57 105 -126 206 -199 290l274 328c140 -148 267 -340 353 -527c29 113 36 241 37 392l427 135c22 -434 -30 -723 -203 -982c-22 -33 -45 -65 -70 -95h183v-425h-1055zM582 506
c0 -58 47 -105 105 -105s105 47 105 105s-47 105 -105 105s-105 -47 -105 -105z" />
    <glyph glyph-name="uniFEFC" unicode="&#xfee0;&#xfe8e;" horiz-adv-x="1663" arabic-form="final" 
d="M64 1185l277 320c196 -168 374 -443 468 -687c8 26 16 53 24 83c40 151 48 311 48 467l437 137c13 -79 22 -176 31 -283c21 -237 49 -535 122 -691c21 -45 46 -103 138 -106h74c32 0 57 -25 57 -56v-312c0 -31 -26 -57 -57 -57h-105c-247 0 -417 170 -507 387
c-129 -183 -283 -253 -501 -301c-82 -18 -161 -29 -253 -46c-21 -4 -43 -8 -124 -22l-73 419c115 20 230 37 344 61c-40 227 -228 540 -400 687z" />
    <glyph glyph-name="uniFDF2" unicode="&#xfedf;&#xfee0;&#xfeea;" horiz-adv-x="2409" arabic-form="isolated" 
d="M127 460c-13 69 -11 142 9 211c52 177 178 247 335 314c40 17 81 35 111 50l-37 112l403 132l241 -728c6 -19 8 -25 8 -25l-5 16s1 -3 4 -13c11 -34 30 -89 78 -101v1h34c36 0 66 30 66 66v777l429 135v-912c0 -36 30 -66 66 -66h50c36 0 66 30 66 66v777l429 135v-967
c0 -242 -198 -440 -440 -440h-160c-82 0 -159 23 -225 62c-66 -39 -143 -62 -226 -62h-111c-167 0 -271 64 -338 147c-94 -55 -189 -85 -299 -85c-56 0 -109 8 -155 21c-174 49 -300 202 -333 377zM1483 1537c-122 0 -150 136 -155 234l129 5c3 -59 9 -100 24 -109
c8 -5 27 0 58 20c-6 25 -10 53 -11 84l129 5c1 -23 7 -92 32 -104c4 -2 11 -2 21 1s20 7 30 14l-38 118l123 39l66 -204l-34 -28c-44 -36 -102 -71 -161 -71c-31 0 -70 13 -94 34c-45 -26 -84 -38 -119 -38zM505 547c0 -58 47 -105 105 -105s105 47 105 105
s-47 105 -105 105s-105 -47 -105 -105zM1503 1991c-9 40 -21 77 -36 104l113 63c22 -39 39 -89 49 -140c11 -55 18 -114 17 -160l-130 4c2 36 -3 83 -13 129z" />
    <glyph glyph-name="uni0622" unicode="&#x622;" horiz-adv-x="760" arabic-form="isolated" 
d="M672 0h-429v1351l429 116v-1467zM69 1573c2 9 12 74 15 88c12 57 25 121 62 156c21 19 45 31 75 31c44 0 86 -24 119 -51c41 -34 89 -47 137 -47c74 0 156 30 219 64c12 6 24 9 37 9c27 0 53 -13 69 -38l45 -71c-108 -67 -241 -126 -371 -126c-78 0 -156 21 -226 74
c-3 -14 -7 -28 -9 -41c-4 -23 -16 -42 -35 -54c-20 -13 -41 -16 -64 -11z" />
    <glyph glyph-name="uniFE82" unicode="&#x622;" horiz-adv-x="683" arabic-form="final" 
d="M116 440v929l429 135v-1009c0 -36 30 -66 66 -66h102c31 0 57 -25 57 -57v-315c0 -31 -26 -57 -57 -57h-157c-242 0 -440 198 -440 440zM4 1565c2 9 12 74 14 88c12 76 43 187 138 187c45 0 85 -25 119 -52c41 -33 88 -46 137 -46c75 0 153 30 218 64c12 6 25 9 38 9
c27 0 54 -13 69 -38l44 -71c-107 -67 -240 -127 -369 -127c-79 0 -157 22 -228 75c-3 -14 -6 -28 -8 -42c-4 -23 -16 -41 -36 -54c-19 -12 -41 -16 -63 -11z" />
    <glyph glyph-name="uni0623" unicode="&#x623;" horiz-adv-x="503" arabic-form="isolated" 
d="M80 1351l429 116v-1467h-429v1351zM218 1508l-78 72c28 31 57 55 87 74c-25 21 -35 54 -17 103c22 58 57 134 130 134c33 0 70 -19 113 -63l-76 -74c-12 10 -23 16 -32 16s-16 -6 -22 -18c-14 -29 8 -36 38 -36c28 0 63 7 80 9c9 1 19 3 29 4l15 -105
c-107 -15 -192 -32 -267 -116z" />
    <glyph glyph-name="uniFE84" unicode="&#x623;" horiz-adv-x="688" arabic-form="final" 
d="M116 440v929l429 135v-1009c0 -36 30 -66 66 -66h102c31 0 57 -25 57 -57v-315c0 -31 -26 -57 -57 -57h-157c-242 0 -440 198 -440 440zM221 1592c28 31 57 55 87 74c-25 21 -35 54 -17 103c22 58 58 133 130 133c33 0 71 -18 113 -62l-76 -74c-12 10 -23 16 -32 16
s-16 -6 -22 -18c-14 -29 8 -36 38 -36c28 0 63 6 80 9c10 2 19 3 29 4l16 -105h-1c-109 -15 -189 -32 -267 -116z" />
    <glyph glyph-name="uni0624" unicode="&#x624;" horiz-adv-x="1265" arabic-form="isolated" 
d="M67 -89c90 32 131 46 170 59c91 31 171 59 241 85c-103 59 -181 131 -232 242c-44 96 -59 209 -32 337c26 123 95 241 204 321c94 69 215 109 360 98c302 -23 486 -254 486 -549v-207l-2 -25c-11 -94 -47 -186 -117 -276c-182 -233 -501 -339 -771 -428
c-67 -22 -138 -47 -167 -57zM588 1185l-104 96c38 41 76 73 116 98c-33 28 -48 72 -23 137c29 78 77 177 174 177c44 0 93 -24 149 -82l-101 -99c-16 14 -30 21 -42 21s-22 -7 -30 -24c-19 -38 11 -48 50 -48c38 0 85 9 107 12l39 6l20 -140h-1c-146 -21 -249 -41 -354 -154
zM632 527c0 -59 48 -108 108 -108c59 0 108 49 108 108c0 60 -49 108 -108 108c-60 0 -108 -48 -108 -108z" />
    <glyph glyph-name="uniFE86" unicode="&#x624;" horiz-adv-x="1329" arabic-form="final" 
d="M73 -77c90 32 131 46 170 59c86 29 163 56 230 81c-170 94 -266 262 -266 457c0 175 74 342 217 447c94 69 215 109 360 98c302 -23 486 -254 486 -549v-92h105c32 0 57 -26 57 -57v-310c0 -32 -25 -57 -57 -57h-230c-185 -228 -496 -332 -765 -420
c-67 -22 -138 -47 -167 -57zM490 1281c38 41 76 73 116 98c-33 28 -48 72 -23 137c29 78 77 177 174 177c44 0 93 -24 149 -82l-101 -99c-16 14 -30 21 -42 21s-22 -7 -30 -24c-19 -38 11 -48 50 -48c38 0 85 9 107 12l39 6l20 -140h-1c-146 -21 -249 -41 -354 -154z
M632 531c0 -60 48 -108 108 -108c59 0 108 48 108 108s-49 108 -108 108c-60 0 -108 -48 -108 -108z" />
    <glyph glyph-name="uni0625" unicode="&#x625;" horiz-adv-x="574" arabic-form="isolated" 
d="M145 0v1351l429 116v-1467h-429zM247 -556l-78 72c28 31 57 55 87 74c-25 21 -35 54 -17 103c22 58 57 133 129 133c34 0 71 -18 114 -62l-76 -74c-12 10 -23 16 -32 16s-16 -6 -22 -18c-14 -29 8 -36 38 -36c28 0 63 7 80 9c9 1 19 3 29 4l15 -105
c-109 -15 -189 -32 -267 -116z" />
    <glyph glyph-name="uniFE88" unicode="&#x625;" horiz-adv-x="683" arabic-form="final" 
d="M116 440v929l429 135v-1009c0 -36 30 -66 66 -66h102c31 0 57 -25 57 -57v-315c0 -31 -26 -57 -57 -57h-157c-242 0 -440 198 -440 440zM352 -550c28 31 57 55 87 74c-25 21 -35 54 -17 103c22 58 57 133 129 133c34 0 71 -18 114 -62l-76 -74c-12 10 -23 16 -32 16
s-16 -6 -22 -18c-14 -29 8 -36 38 -36c28 0 63 7 80 9c9 1 19 3 29 4l15 -105c-107 -15 -192 -32 -267 -116z" />
    <glyph glyph-name="uni0626" unicode="&#x626;" horiz-adv-x="1718" arabic-form="isolated" 
d="M211 -260c-75 114 -116 261 -108 447c9 195 80 448 218 591l303 -297c-57 -60 -94 -230 -98 -310c-4 -91 12 -154 39 -196c44 -67 132 -83 206 -86c160 -6 348 47 501 127l-486 207c46 108 100 259 163 356c149 229 386 315 652 330l23 -423c-109 -7 -184 -28 -235 -59
l135 -57c220 -93 156 -355 195 -574l-116 -77c-230 -153 -564 -267 -848 -254c-216 10 -421 89 -544 275zM643 774l-104 95c38 41 76 73 116 98c-33 28 -48 72 -23 137c29 78 76 178 173 178c44 0 93 -24 150 -83l-101 -99c-16 14 -30 21 -42 21s-22 -7 -30 -24
c-19 -38 11 -48 50 -48c38 0 85 10 107 13c13 2 26 3 39 5l20 -140h-1c-145 -19 -250 -43 -354 -153z" />
    <glyph glyph-name="uniFE8A" unicode="&#x626;" horiz-adv-x="1788" arabic-form="final" 
d="M204 -260c-75 114 -116 261 -108 447c9 191 82 452 219 591l302 -297c-57 -60 -94 -230 -97 -310c-3 -91 11 -154 38 -196c43 -66 133 -83 206 -86c155 -6 334 43 485 118c-166 80 -333 160 -499 239l183 382l165 -79c145 -69 280 -121 442 -123h289c31 0 57 -26 57 -57
v-312c0 -31 -26 -57 -57 -57h-151c9 -69 22 -136 34 -204l-116 -77c-229 -152 -564 -268 -848 -254c-214 10 -422 90 -544 275zM667 774l-104 95c38 41 76 73 116 98c-33 28 -48 72 -23 137c29 78 76 178 173 178c44 0 93 -24 150 -83l-101 -99c-16 14 -30 21 -42 21
s-22 -7 -30 -24c-19 -38 11 -48 50 -48c38 0 84 11 107 13c13 1 26 3 39 5l20 -140h-1c-145 -19 -250 -43 -354 -153z" />
    <glyph glyph-name="uniFE8B" unicode="&#x626;" horiz-adv-x="694" arabic-form="initial" 
d="M-38 0c-32 0 -57 25 -57 57v312c0 31 25 56 56 56h39c125 0 208 19 262 35c-3 173 -50 372 -100 536l405 123c35 -114 81 -293 105 -470c23 -172 22 -343 -31 -451c-69 -71 -144 -117 -224 -146c-127 -46 -266 -53 -417 -52h-38zM54 1289c38 40 76 72 116 97
c-33 28 -47 72 -23 137c29 78 76 178 173 178c44 0 93 -24 150 -83l-101 -98c-16 13 -30 21 -42 21s-22 -8 -30 -25c-18 -38 11 -48 50 -48c38 0 84 10 107 13l39 6l20 -140l-1 -1c-145 -19 -250 -43 -354 -153z" />
    <glyph glyph-name="uniFE8C" unicode="&#x626;" horiz-adv-x="802" arabic-form="medial" 
d="M-20 0c-32 0 -58 26 -58 58l3 312c0 30 24 57 55 56c54 -2 166 6 224 28c-6 138 -21 275 -61 408l405 123c40 -131 65 -266 74 -403c2 -29 4 -55 6 -79c34 -60 94 -78 165 -78h30c31 0 57 -25 57 -56v-312c0 -31 -26 -57 -57 -57h-30c-118 0 -238 25 -336 95
c-160 -82 -317 -97 -477 -95zM155 1201c37 40 75 72 115 97c-33 28 -46 72 -22 137c29 78 75 178 172 178c45 0 94 -24 151 -83l-102 -98c-15 13 -29 21 -41 21s-23 -8 -31 -25c-18 -38 11 -48 50 -48c38 0 84 10 107 13l39 6l21 -140h-1c-142 -21 -253 -43 -354 -154z" />
    <glyph glyph-name="uni0627" unicode="&#x627;" horiz-adv-x="558" arabic-form="isolated" 
d="M559 1467v-1467h-429v1351z" />
    <glyph glyph-name="uniFE8E" unicode="&#x627;" horiz-adv-x="680" arabic-form="final" 
d="M116 440v929l429 135v-1009c0 -36 30 -66 66 -66h102c31 0 57 -25 57 -57v-315c0 -31 -26 -57 -57 -57h-157c-242 0 -440 198 -440 440z" />
    <glyph glyph-name="uni0628" unicode="&#x628;" horiz-adv-x="1912" arabic-form="isolated" 
d="M123 392c-53 147 -50 326 37 541l394 -160c-44 -108 -51 -185 -32 -237c43 -122 281 -155 388 -161c238 -13 485 35 588 106c2 119 -10 222 -65 329l379 193c60 -119 104 -286 111 -432c8 -161 -31 -312 -137 -402c-162 -137 -552 -235 -899 -217
c-305 16 -650 125 -764 440zM826 -455c0 104 85 189 189 189s189 -85 189 -189s-85 -189 -189 -189s-189 85 -189 189z" />
    <glyph glyph-name="uniFE90" unicode="&#x628;" horiz-adv-x="2148" arabic-form="final" 
d="M115 383c-53 147 -50 326 37 541l393 -160c-44 -108 -51 -185 -32 -237c43 -121 282 -155 388 -161c237 -13 483 35 587 105c17 95 -21 246 -64 330l379 193c60 -119 82 -289 111 -432c1 -5 1 -10 1 -15c17 -91 91 -121 195 -122h59c31 0 57 -25 57 -56v-312
c0 -31 -26 -57 -57 -57h-59c-133 0 -279 36 -382 124c-183 -118 -534 -200 -850 -182c-305 18 -649 126 -763 441zM789 -439c0 104 84 189 189 189c104 0 189 -85 189 -189c0 -105 -85 -189 -189 -189c-105 0 -189 84 -189 189z" />
    <glyph glyph-name="uniFE91" unicode="&#x628;" horiz-adv-x="688" arabic-form="initial" 
d="M-95 369c0 31 25 56 56 56h39c125 0 208 19 262 35c-3 173 -50 372 -100 536l405 123c35 -114 81 -293 105 -470c23 -172 22 -343 -31 -451c-69 -71 -144 -117 -224 -146c-127 -46 -266 -53 -417 -52h-38c-32 0 -57 25 -57 57v312zM106 -404c0 104 85 189 189 189
s189 -85 189 -189s-85 -189 -189 -189s-189 85 -189 189z" />
    <glyph glyph-name="uniFE92" unicode="&#x628;" horiz-adv-x="814" arabic-form="medial" 
d="M-20 0c-32 0 -58 26 -58 58l3 312c0 30 24 57 55 56c54 -2 166 6 224 28c-6 138 -21 275 -61 408l405 123c40 -131 65 -266 74 -403c2 -29 4 -55 6 -79c34 -60 94 -78 165 -78h30c31 0 57 -25 57 -56v-312c0 -31 -26 -57 -57 -57h-30c-118 0 -238 25 -336 95
c-160 -82 -317 -97 -477 -95zM424 -527c-104 0 -189 85 -189 189c0 105 85 189 189 189s189 -84 189 -189c0 -104 -85 -189 -189 -189z" />
    <glyph glyph-name="uni067E" unicode="&#x67e;" horiz-adv-x="1929" arabic-form="isolated" 
d="M123 392c-53 147 -50 326 37 541l394 -160c-44 -108 -51 -185 -32 -237c43 -122 281 -155 388 -161c238 -13 485 35 588 106c2 119 -10 222 -65 329l379 193c60 -119 104 -286 111 -432c8 -161 -31 -312 -137 -402c-162 -137 -552 -235 -899 -217
c-305 16 -650 125 -764 440zM797 -617c-104 0 -189 85 -189 189c0 105 85 189 189 189c76 0 141 -44 171 -108c31 64 96 108 171 108c105 0 189 -84 189 -189c0 -104 -84 -189 -189 -189c-75 0 -140 45 -171 109c-30 -64 -95 -109 -171 -109zM964 -975
c-104 0 -189 85 -189 189c0 105 85 189 189 189c105 0 189 -84 189 -189c0 -104 -84 -189 -189 -189z" />
    <glyph glyph-name="uniFB57" unicode="&#x67e;" horiz-adv-x="2164" arabic-form="final" 
d="M142 383c-53 147 -50 326 37 541l393 -160c-43 -108 -51 -185 -32 -237c43 -121 282 -155 388 -161c237 -13 483 35 587 105c17 95 -21 246 -64 330l379 193c69 -137 112 -293 112 -447c17 -91 92 -121 196 -122h58c32 0 57 -25 57 -56v-312c0 -31 -25 -57 -57 -57h-58
c-137 0 -275 36 -383 124c-183 -118 -534 -200 -850 -182c-305 18 -649 126 -763 441zM605 -428c0 105 85 189 189 189c76 0 141 -44 171 -108c30 64 95 108 171 108c104 0 189 -84 189 -189c0 -104 -85 -189 -189 -189c-76 0 -141 45 -171 109c-30 -64 -96 -109 -171 -109
c-104 0 -189 85 -189 189zM961 -975c-104 0 -189 85 -189 189c0 105 85 189 189 189s189 -84 189 -189c0 -104 -85 -189 -189 -189z" />
    <glyph glyph-name="uniFB58" unicode="&#x67e;" horiz-adv-x="798" arabic-form="initial" 
d="M-94 57v312c0 31 25 56 57 56h145c125 0 208 19 262 35c-4 173 -50 372 -100 536l405 123c35 -114 81 -293 104 -470c22 -172 23 -343 -30 -451c-70 -71 -145 -117 -225 -146c-126 -46 -265 -53 -416 -52h-145c-32 0 -57 25 -57 57zM48 -428c0 105 85 189 189 189
c76 0 141 -44 171 -108c31 64 96 108 171 108c105 0 189 -84 189 -189c0 -104 -84 -189 -189 -189c-75 0 -140 45 -171 109c-30 -64 -95 -109 -171 -109c-104 0 -189 85 -189 189zM215 -786c0 105 85 189 189 189c105 0 189 -84 189 -189c0 -104 -84 -189 -189 -189
c-104 0 -189 85 -189 189z" />
    <glyph glyph-name="uniFB59" unicode="&#x67e;" horiz-adv-x="818" arabic-form="medial" 
d="M-20 0c-32 0 -58 26 -58 58l3 312c0 30 24 57 55 56c54 -2 166 6 224 28c-6 138 -21 275 -61 408l405 123c40 -131 65 -266 74 -403c2 -29 4 -55 6 -79c34 -60 94 -78 165 -78h30c31 0 57 -25 57 -56v-312c0 -31 -26 -57 -57 -57h-30c-118 0 -238 25 -336 95
c-160 -82 -317 -97 -477 -95zM270 -617c-104 0 -189 85 -189 189c0 105 85 189 189 189c76 0 141 -44 171 -108c31 64 96 108 171 108c105 0 189 -84 189 -189c0 -104 -84 -189 -189 -189c-75 0 -140 45 -171 109c-30 -64 -95 -109 -171 -109zM437 -975
c-104 0 -189 85 -189 189c0 105 85 189 189 189c105 0 189 -84 189 -189c0 -104 -84 -189 -189 -189z" />
    <glyph glyph-name="uni062A" unicode="&#x62a;" horiz-adv-x="1922" arabic-form="isolated" 
d="M123 392c-53 147 -50 326 37 541l394 -160c-44 -108 -51 -185 -32 -237c43 -122 281 -155 388 -161c238 -13 485 35 588 106c2 119 -10 222 -65 329l379 193c60 -119 104 -286 111 -432c8 -161 -31 -312 -137 -402c-162 -137 -552 -235 -899 -217
c-305 16 -650 125 -764 440zM843 829c-105 0 -189 85 -189 189c0 105 84 189 189 189c69 0 130 -38 163 -94c33 56 94 94 164 94c104 0 189 -84 189 -189c0 -104 -85 -189 -189 -189c-70 0 -131 38 -164 94c-33 -56 -94 -94 -163 -94z" />
    <glyph glyph-name="uniFE96" unicode="&#x62a;" horiz-adv-x="2172" arabic-form="final" 
d="M142 383c-53 147 -50 326 37 541l393 -160c-43 -108 -51 -185 -32 -237c43 -121 282 -155 388 -161c237 -13 483 35 587 105c17 95 -21 246 -64 330l379 193c69 -137 112 -293 112 -447c17 -91 92 -121 196 -122h58c32 0 57 -25 57 -56v-312c0 -31 -25 -57 -57 -57h-58
c-137 0 -275 36 -383 124c-183 -118 -534 -200 -850 -182c-305 18 -649 126 -763 441zM837 820c-104 0 -189 85 -189 189c0 105 85 189 189 189c70 0 131 -38 163 -94c33 56 94 94 164 94c104 0 189 -85 189 -189s-85 -189 -189 -189c-70 0 -131 38 -164 94
c-32 -56 -93 -94 -163 -94z" />
    <glyph glyph-name="uniFE97" unicode="&#x62a;" horiz-adv-x="801" arabic-form="initial" 
d="M-94 57v312c0 31 25 56 57 56h145c125 0 208 19 262 35c-4 173 -50 372 -100 536l405 123c35 -114 81 -293 104 -470c22 -172 23 -343 -30 -451c-70 -71 -145 -117 -225 -146c-126 -46 -265 -53 -416 -52h-145c-32 0 -57 25 -57 57zM28 1445c0 105 84 189 189 189
c75 0 141 -44 171 -108c30 64 95 108 171 108c104 0 189 -84 189 -189c0 -104 -85 -189 -189 -189c-76 0 -141 45 -171 109c-30 -64 -96 -109 -171 -109c-105 0 -189 85 -189 189z" />
    <glyph glyph-name="uniFE98" unicode="&#x62a;" horiz-adv-x="797" arabic-form="medial" 
d="M-20 0c-32 0 -58 26 -58 58l3 312c0 30 24 57 55 56c54 -2 166 6 224 28c-6 138 -21 275 -61 408l405 123c40 -131 65 -266 74 -403c2 -29 4 -55 6 -79c34 -60 94 -78 165 -78h30c31 0 57 -25 57 -56v-312c0 -31 -26 -57 -57 -57h-30c-118 0 -238 25 -336 95
c-160 -82 -317 -97 -477 -95zM256 1146c-105 0 -189 85 -189 189c0 105 84 189 189 189c75 0 140 -44 171 -108c30 64 95 108 171 108c104 0 189 -85 189 -189s-85 -189 -189 -189c-76 0 -141 45 -171 109c-31 -64 -96 -109 -171 -109z" />
    <glyph glyph-name="uni062B" unicode="&#x62b;" horiz-adv-x="1928" arabic-form="isolated" 
d="M123 392c-53 147 -50 326 37 541l394 -160c-44 -108 -51 -185 -32 -237c43 -122 281 -155 388 -161c238 -13 485 35 588 106c2 119 -10 222 -65 329l379 193c60 -119 104 -286 111 -432c8 -161 -31 -312 -137 -402c-162 -137 -552 -235 -899 -217
c-305 16 -650 125 -764 440zM851 833c-104 0 -189 85 -189 189s85 189 189 189c76 0 141 -44 171 -108c30 64 95 108 171 108c104 0 189 -85 189 -189s-85 -189 -189 -189c-76 0 -141 44 -171 108c-30 -64 -95 -108 -171 -108zM834 1379c0 104 85 189 189 189
s189 -85 189 -189s-85 -189 -189 -189s-189 85 -189 189z" />
    <glyph glyph-name="uniFE9A" unicode="&#x62b;" horiz-adv-x="2185" arabic-form="final" 
d="M142 383c-53 147 -50 326 37 541l393 -160c-43 -108 -51 -185 -32 -237c43 -121 282 -155 388 -161c237 -13 483 35 587 105c17 95 -21 246 -64 330l379 193c69 -137 112 -293 112 -447c17 -91 92 -121 196 -122h58c32 0 57 -25 57 -56v-312c0 -31 -25 -57 -57 -57h-58
c-137 0 -275 36 -383 124c-183 -118 -534 -200 -850 -182c-305 18 -649 126 -763 441zM851 833c-104 0 -189 85 -189 189s85 189 189 189c76 0 141 -44 171 -108c30 64 95 108 171 108c104 0 189 -85 189 -189s-85 -189 -189 -189c-76 0 -141 44 -171 108
c-30 -64 -95 -108 -171 -108zM834 1379c0 104 85 189 189 189s189 -85 189 -189s-85 -189 -189 -189s-189 85 -189 189z" />
    <glyph glyph-name="uniFE9B" unicode="&#x62b;" horiz-adv-x="861" arabic-form="initial" 
d="M-88 57v312c0 31 26 56 57 56h204c125 0 208 19 262 35c-4 173 -50 372 -100 536l405 123c35 -114 81 -293 104 -470c22 -172 23 -343 -30 -451c-70 -71 -145 -117 -225 -146c-126 -46 -265 -53 -416 -52h-204c-31 0 -57 25 -57 57zM231 1242c-104 0 -189 85 -189 189
c0 105 85 189 189 189c76 0 141 -44 171 -108c30 64 96 108 171 108c105 0 189 -84 189 -189c0 -104 -85 -189 -189 -189c-75 0 -141 45 -171 109c-30 -64 -95 -109 -171 -109zM214 1788c0 105 85 189 189 189c105 0 189 -84 189 -189c0 -104 -85 -189 -189 -189
s-189 85 -189 189z" />
    <glyph glyph-name="uniFE9C" unicode="&#x62b;" horiz-adv-x="797" arabic-form="medial" 
d="M-20 0c-32 0 -58 26 -58 58l3 312c0 30 24 57 55 56c54 -2 166 6 224 28c-6 138 -21 275 -61 408l405 123c40 -131 65 -266 74 -403c2 -29 4 -55 6 -79c34 -60 94 -78 165 -78h30c31 0 57 -25 57 -56v-312c0 -31 -26 -57 -57 -57h-30c-118 0 -238 25 -336 95
c-160 -82 -317 -97 -477 -95zM42 1296c0 105 85 189 189 189c76 0 141 -44 171 -108c30 64 96 108 171 108c105 0 189 -84 189 -189c0 -104 -85 -189 -189 -189c-75 0 -141 45 -171 109c-30 -64 -95 -109 -171 -109c-104 0 -189 85 -189 189zM214 1653c0 105 85 189 189 189
c105 0 189 -84 189 -189c0 -104 -85 -189 -189 -189s-189 85 -189 189z" />
    <glyph glyph-name="uni062C" unicode="&#x62c;" horiz-adv-x="1643" arabic-form="isolated" 
d="M118 -269c-43 144 -39 292 6 428c45 137 130 261 248 354c95 75 204 136 318 177c-72 34 -154 59 -255 59c-25 0 -50 -2 -77 -5l-140 400c83 20 138 30 225 30c266 1 432 -95 590 -187c91 -53 178 -104 296 -104c51 0 108 10 173 33l140 -400
c-266 -53 -602 -126 -872 -253c-107 -50 -204 -117 -242 -235c-18 -56 -21 -117 -4 -173c55 -183 293 -229 506 -229c105 0 205 11 273 23l139 -400c-121 -32 -260 -49 -400 -49c-382 0 -802 122 -924 531zM699 -56c0 104 85 189 189 189s189 -85 189 -189
c0 -105 -85 -189 -189 -189s-189 84 -189 189z" />
    <glyph glyph-name="uniFE9E" unicode="&#x62c;" horiz-adv-x="1693" arabic-form="final" 
d="M112 -268c-43 144 -38 292 7 428c45 137 130 261 248 354c84 66 217 143 319 177c-57 26 -118 47 -190 55c-44 5 -91 5 -144 -1l-140 400c73 17 121 28 196 30c94 3 177 -6 250 -23c147 -34 260 -100 369 -164c91 -53 178 -104 295 -104c51 0 109 10 175 33l139 -400
c-104 -37 -194 -56 -275 -62c1 -1 2 -2 2 -3c17 -17 44 -26 77 -26h267c31 0 56 -25 56 -57v-312c0 -31 -25 -57 -56 -57h-267c-218 0 -414 126 -491 331c-42 -12 -84 -27 -123 -42c-131 -52 -256 -119 -304 -260c-19 -56 -20 -117 -3 -176c57 -195 335 -227 505 -227
c91 0 185 9 273 24l140 -400c-160 -35 -299 -52 -428 -52c-152 0 -289 24 -425 71c-223 77 -400 222 -472 463zM827 -247c-105 0 -189 85 -189 189s84 189 189 189c104 0 189 -85 189 -189c0 -105 -85 -189 -189 -189z" />
    <glyph glyph-name="uniFE9F" unicode="&#x62c;" horiz-adv-x="1670" arabic-form="initial" 
d="M-26 0c-32 0 -57 26 -57 57v312c0 31 25 56 57 56h498c60 0 125 18 192 42c-42 28 -82 54 -117 73c-9 5 -18 7 -27 7c-18 0 -36 -9 -46 -26l-18 -31l-366 216l63 106c69 115 182 185 316 185c24 0 47 -2 69 -5c142 -22 309 -135 451 -231c62 -42 119 -81 146 -95
c20 -10 45 -20 77 -30c130 -40 311 -56 449 -79l-140 -400l-173 24l-121 2c-105 2 -216 -40 -324 -81c-136 -52 -269 -102 -431 -102h-498zM487 -360c0 105 84 189 189 189c104 0 189 -84 189 -189c0 -104 -85 -189 -189 -189c-105 0 -189 85 -189 189z" />
    <glyph glyph-name="uniFEA0" unicode="&#x62c;" horiz-adv-x="1452" arabic-form="medial" 
d="M-60 369c0 31 25 56 56 56h328c95 0 230 42 322 73l-103 41c-27 11 -58 -2 -69 -27l-9 -21l-373 200l67 125c77 144 162 193 261 193c88 0 188 -39 302 -84c90 -35 199 -79 318 -79c57 0 115 10 175 35l162 -392c-69 -29 -136 -48 -199 -59c12 -3 24 -5 36 -5h248
c31 0 56 -25 56 -56v-312c0 -31 -25 -57 -56 -57h-248c-126 0 -255 47 -354 124c-169 -59 -356 -124 -536 -124h-328c-31 0 -56 26 -56 57v312zM482 -360c0 105 84 189 189 189c104 0 189 -84 189 -189c0 -104 -85 -189 -189 -189c-105 0 -189 85 -189 189z" />
    <glyph glyph-name="uni0686" unicode="&#x686;" horiz-adv-x="1638" arabic-form="isolated" 
d="M118 -269c-43 144 -39 292 6 428c45 137 130 261 248 354c95 75 204 136 318 177c-72 34 -154 59 -255 59c-25 0 -50 -2 -77 -5l-140 400c83 20 138 30 225 30c266 1 432 -95 590 -187c91 -53 178 -104 296 -104c51 0 108 10 173 33l140 -400
c-266 -53 -602 -126 -872 -253c-107 -50 -204 -117 -242 -235c-18 -56 -21 -117 -4 -173c55 -183 293 -229 506 -229c105 0 205 11 273 23l139 -400c-121 -32 -260 -49 -400 -49c-382 0 -802 122 -924 531zM916 -31c-62 0 -113 51 -113 114c0 62 51 113 113 113
c42 0 79 -23 98 -57c20 34 56 57 98 57c63 0 113 -51 113 -113c0 -63 -51 -114 -113 -114c-42 0 -78 23 -98 57c-19 -34 -56 -57 -98 -57zM901 -148c0 62 51 113 113 113c63 0 113 -51 113 -113c0 -63 -50 -113 -113 -113c-62 0 -113 50 -113 113z" />
    <glyph glyph-name="uniFB7B" unicode="&#x686;" horiz-adv-x="1702" arabic-form="final" 
d="M112 -268c-43 144 -39 292 6 428c45 137 130 262 248 354c91 71 191 134 303 171c6 2 11 4 16 6c-56 26 -118 47 -189 55c-44 5 -92 5 -144 -1l-140 400c72 17 120 28 196 30c94 3 176 -6 250 -23c147 -34 260 -100 369 -164c91 -53 177 -104 294 -104
c52 0 109 10 176 33l139 -400c-104 -37 -195 -56 -276 -62c22 -22 49 -29 79 -29h265c31 0 57 -25 57 -57v-312c0 -31 -26 -57 -57 -57h-265c-223 0 -411 125 -491 331c-42 -12 -83 -26 -123 -42c-128 -51 -258 -120 -303 -260c-18 -56 -21 -118 -3 -176
c59 -195 332 -227 503 -227c92 0 186 9 275 24l139 -400c-160 -35 -299 -52 -428 -52c-151 0 -288 24 -425 71c-222 77 -399 222 -471 463zM620 40c0 63 51 113 113 113c42 0 79 -22 98 -56c20 34 56 56 98 56c63 0 113 -50 113 -113c0 -62 -50 -113 -113 -113
c-42 0 -78 23 -98 57c-19 -34 -56 -57 -98 -57c-62 0 -113 51 -113 113zM718 -190c0 62 51 113 113 113c63 0 113 -51 113 -113c0 -63 -50 -113 -113 -113c-62 0 -113 50 -113 113z" />
    <glyph glyph-name="uniFB7C" unicode="&#x686;" horiz-adv-x="1696" arabic-form="initial" 
d="M-72 369c0 31 26 56 57 56h521c59 0 124 18 192 42c-42 28 -83 54 -118 73c-8 5 -17 7 -26 7c-18 0 -36 -10 -46 -26l-19 -31l-365 216l63 106c69 116 180 185 315 185c24 0 47 -2 69 -5c142 -22 309 -134 451 -231c63 -43 120 -81 147 -95c20 -10 44 -20 77 -30
c131 -39 310 -56 448 -79l-139 -400l-173 24l-122 2c-104 2 -216 -40 -324 -81c-136 -52 -268 -102 -430 -102h-521c-31 0 -57 26 -57 57v312zM252 -345c0 104 85 189 189 189c76 0 141 -45 171 -109c30 64 95 109 171 109c104 0 189 -85 189 -189
c0 -105 -85 -189 -189 -189c-76 0 -141 44 -171 108c-30 -64 -96 -108 -171 -108c-104 0 -189 84 -189 189zM419 -703c0 104 85 189 189 189s189 -85 189 -189c0 -105 -85 -189 -189 -189s-189 84 -189 189z" />
    <glyph glyph-name="uniFB7D" unicode="&#x686;" horiz-adv-x="1432" arabic-form="medial" 
d="M-76 369c0 31 25 56 56 56h328c95 0 230 42 322 73l-103 41c-27 11 -58 -2 -69 -27l-9 -21l-373 200l67 125c77 144 162 193 261 193c88 0 188 -39 302 -84c90 -35 199 -79 318 -79c57 0 115 10 175 35l162 -392c-69 -29 -136 -48 -199 -59c12 -3 24 -5 36 -5h248
c31 0 56 -25 56 -56v-312c0 -31 -25 -57 -56 -57h-248c-126 0 -255 47 -354 124c-169 -59 -356 -124 -536 -124h-328c-31 0 -56 26 -56 57v312zM392 -345c0 104 85 189 189 189c76 0 141 -45 171 -109c31 64 96 109 171 109c105 0 189 -85 189 -189
c0 -105 -84 -189 -189 -189c-75 0 -140 44 -171 108c-30 -64 -95 -108 -171 -108c-104 0 -189 84 -189 189zM748 -892c-104 0 -189 84 -189 189c0 104 85 189 189 189c105 0 189 -85 189 -189c0 -105 -84 -189 -189 -189z" />
    <glyph glyph-name="uni062D" unicode="&#x62d;" horiz-adv-x="1638" arabic-form="isolated" 
d="M114 -269c-43 144 -39 292 6 428c45 137 130 261 248 354c95 75 204 136 318 177c-72 34 -154 59 -255 59c-25 0 -50 -2 -77 -5l-140 400c83 20 138 30 225 30c266 1 432 -95 590 -187c91 -53 178 -104 296 -104c51 0 108 10 173 33l140 -400
c-266 -53 -602 -126 -872 -253c-107 -50 -204 -117 -242 -235c-18 -56 -21 -118 -3 -176c59 -194 331 -227 503 -227c91 0 186 9 275 24l139 -400c-121 -32 -260 -49 -400 -49c-382 0 -802 122 -924 531z" />
    <glyph glyph-name="uniFEA2" unicode="&#x62d;" horiz-adv-x="1661" arabic-form="final" 
d="M80 -268c-43 144 -38 292 7 428c45 137 130 261 248 354c84 66 217 143 319 177c-57 26 -118 47 -190 55c-44 5 -91 5 -144 -1l-140 400c73 17 121 28 196 30c94 3 177 -6 250 -23c147 -34 260 -100 369 -164c91 -53 178 -104 295 -104c51 0 109 10 175 33l139 -400
c-104 -37 -194 -56 -275 -62c1 -1 2 -2 2 -3c17 -17 44 -26 77 -26h245c31 0 57 -25 57 -57v-312c0 -31 -26 -57 -57 -57h-245c-218 0 -414 126 -491 331c-42 -12 -84 -27 -123 -42c-131 -52 -256 -119 -304 -260c-19 -56 -20 -117 -3 -176c57 -194 333 -227 503 -227
c92 0 186 9 275 24l140 -400c-160 -35 -299 -52 -428 -52c-152 0 -289 24 -425 71c-223 77 -400 222 -472 463z" />
    <glyph glyph-name="uniFEA3" unicode="&#x62d;" horiz-adv-x="1639" arabic-form="initial" 
d="M-24 0c-31 0 -57 26 -57 57v312c0 31 26 56 57 56h476c59 0 124 18 192 42c-42 28 -83 54 -118 73c-8 5 -17 7 -26 7c-18 0 -36 -9 -46 -26l-19 -31l-365 216l63 106c69 116 180 185 315 185c24 0 47 -2 69 -5c142 -22 311 -133 452 -231c62 -43 119 -81 146 -95
c20 -10 44 -20 77 -30c131 -39 311 -56 449 -79l-140 -400l-173 24l-121 2c-105 2 -216 -40 -324 -81c-136 -52 -269 -102 -431 -102h-476z" />
    <glyph glyph-name="uniFEA4" unicode="&#x62d;" horiz-adv-x="1431" arabic-form="medial" 
d="M-20 0c-31 0 -56 26 -56 57v312c0 31 25 56 56 56h328c95 0 230 42 322 73l-103 41c-27 11 -58 -2 -69 -27l-9 -21l-373 200l67 125c77 144 162 193 261 193c88 0 188 -39 302 -84c90 -35 199 -79 318 -79c57 0 115 10 175 35l162 -392c-69 -29 -136 -48 -199 -59
c12 -3 24 -5 36 -5h248c31 0 56 -25 56 -56v-312c0 -31 -25 -57 -56 -57h-248c-126 0 -255 47 -354 124c-169 -59 -356 -124 -536 -124h-328z" />
    <glyph glyph-name="uni062E" unicode="&#x62e;" horiz-adv-x="1638" arabic-form="isolated" 
d="M118 -269c-43 144 -39 292 6 428c45 137 130 261 248 354c95 75 204 136 318 177c-72 34 -154 59 -255 59c-25 0 -50 -2 -77 -5l-140 400c83 20 138 30 225 30c266 1 432 -95 590 -187c91 -53 178 -104 296 -104c51 0 108 10 173 33l140 -400
c-266 -53 -602 -126 -872 -253c-107 -50 -204 -117 -242 -235c-18 -56 -21 -117 -4 -173c55 -183 293 -229 506 -229c105 0 205 11 273 23l139 -400c-121 -32 -260 -49 -400 -49c-382 0 -802 122 -924 531zM805 1442c0 105 84 189 189 189c104 0 189 -84 189 -189
c0 -104 -85 -189 -189 -189c-105 0 -189 85 -189 189z" />
    <glyph glyph-name="uniFEA6" unicode="&#x62e;" horiz-adv-x="1686" arabic-form="final" 
d="M112 -268c-43 144 -38 292 7 428c45 137 130 261 248 354c84 66 217 143 319 177c-57 26 -118 47 -190 55c-44 5 -91 5 -144 -1l-140 400c73 17 121 28 196 30c94 3 177 -6 250 -23c147 -34 260 -100 369 -164c91 -53 178 -104 295 -104c51 0 109 10 175 33l139 -400
c-104 -37 -194 -56 -275 -62c1 -1 2 -2 2 -3c17 -17 44 -26 77 -26h267c31 0 56 -25 56 -57v-312c0 -31 -25 -57 -56 -57h-267c-218 0 -414 126 -491 331c-42 -12 -84 -27 -123 -42c-131 -52 -256 -119 -304 -260c-19 -56 -20 -117 -3 -176c57 -195 335 -227 505 -227
c91 0 185 9 273 24l140 -400c-160 -35 -299 -52 -428 -52c-152 0 -289 24 -425 71c-223 77 -400 222 -472 463zM864 1330c-104 0 -189 85 -189 189c0 105 85 189 189 189c105 0 189 -85 189 -189s-84 -189 -189 -189z" />
    <glyph glyph-name="uniFEA7" unicode="&#x62e;" horiz-adv-x="1609" arabic-form="initial" 
d="M-111 57v312c0 31 25 56 57 56h472c59 0 124 18 192 42c-42 28 -83 54 -118 73c-8 5 -17 7 -26 7c-18 0 -36 -9 -46 -26l-19 -31l-365 216l63 106c69 116 180 185 315 185c24 0 47 -2 69 -5c142 -22 311 -133 452 -231c62 -43 119 -81 146 -95c20 -10 44 -20 77 -30
c131 -39 311 -56 449 -79l-140 -400l-173 24l-121 2c-105 2 -216 -40 -324 -81c-136 -52 -269 -102 -431 -102h-472c-32 0 -57 26 -57 57zM336 1362c0 104 84 189 189 189c104 0 189 -85 189 -189s-85 -189 -189 -189c-105 0 -189 85 -189 189z" />
    <glyph glyph-name="uniFEA8" unicode="&#x62e;" horiz-adv-x="1437" arabic-form="medial" 
d="M-76 369c0 31 25 56 56 56h328c95 0 230 42 322 73l-103 41c-27 11 -58 -2 -69 -27l-9 -21l-373 200l67 125c77 144 162 193 261 193c88 0 188 -39 302 -84c90 -35 199 -79 318 -79c57 0 115 10 175 35l162 -392c-69 -29 -136 -48 -199 -59c12 -3 24 -5 36 -5h248
c31 0 56 -25 56 -56v-312c0 -31 -25 -57 -56 -57h-248c-126 0 -255 47 -354 124c-169 -59 -356 -124 -536 -124h-328c-31 0 -56 26 -56 57v312zM336 1362c0 104 84 189 189 189c104 0 189 -85 189 -189s-85 -189 -189 -189c-105 0 -189 85 -189 189z" />
    <glyph glyph-name="uni062F" unicode="&#x62f;" horiz-adv-x="982" arabic-form="isolated" 
d="M80 89c-6 4 -1 2 -6 4l191 379c14 -7 18 -9 23 -12c47 -30 127 -36 181 -36c25 0 51 1 75 7c4 1 8 2 12 2c-27 159 -95 270 -209 382l299 301c64 -64 145 -151 214 -278c134 -247 154 -422 76 -680c-129 -113 -297 -158 -466 -158c-90 0 -177 13 -242 29
c-71 17 -117 43 -148 60z" />
    <glyph glyph-name="uniFEAA" unicode="&#x62f;" horiz-adv-x="1310" arabic-form="final" 
d="M357 1c-65 0 -211 14 -267 22l63 420c35 -5 160 -17 204 -17c93 0 192 14 267 44c37 15 64 30 66 43v4c-19 54 -34 105 -46 151l-113 434l398 144c26 -72 50 -169 78 -281c15 -59 30 -123 48 -189c23 -85 54 -194 104 -275c27 -44 66 -76 121 -76h49c31 0 56 -25 56 -56
v-312c0 -31 -25 -57 -56 -57h-77c-146 -2 -257 54 -346 141c-148 -100 -376 -140 -549 -140z" />
    <glyph glyph-name="uni0630" unicode="&#x630;" horiz-adv-x="952" arabic-form="isolated" 
d="M48 87c-6 4 -1 2 -6 4l191 379c13 -7 18 -9 23 -12c47 -30 127 -36 180 -36c26 0 51 2 75 7c5 1 9 2 13 2c-27 155 -97 273 -209 382l299 301c64 -64 145 -151 214 -278c134 -247 154 -422 75 -680c-130 -114 -296 -158 -465 -158c-91 0 -177 13 -242 29
c-71 17 -117 43 -148 60zM515 1264c-105 0 -189 84 -189 189c0 104 84 189 189 189c104 0 189 -85 189 -189c0 -105 -85 -189 -189 -189z" />
    <glyph glyph-name="uniFEAC" unicode="&#x630;" horiz-adv-x="1331" arabic-form="final" 
d="M357 1c-65 0 -211 14 -267 22l63 420c35 -5 160 -17 204 -17c93 0 192 14 267 44c37 15 64 30 66 43v4c-19 54 -34 105 -46 151l-113 434l398 144c26 -72 50 -169 78 -281c15 -59 30 -123 48 -189c23 -85 54 -194 104 -275c27 -44 66 -76 121 -76h65c31 0 56 -25 56 -56
v-312c0 -31 -25 -57 -56 -57h-93c-146 -2 -257 54 -346 141c-148 -100 -376 -140 -549 -140zM670 1415c-104 0 -189 85 -189 189c0 105 85 189 189 189s189 -84 189 -189c0 -104 -85 -189 -189 -189z" />
    <glyph glyph-name="uni0631" unicode="&#x631;" horiz-adv-x="984" arabic-form="isolated" 
d="M42 -58c196 65 370 144 510 300c9 10 2 43 -10 81c-24 74 -74 154 -108 208l359 226c45 -73 112 -181 152 -303c52 -159 57 -331 -64 -480c-178 -218 -444 -347 -706 -434z" />
    <glyph glyph-name="uniFEAE" unicode="&#x631;" horiz-adv-x="1131" arabic-form="final" 
d="M203 -460l-133 402c164 54 562 216 470 454c-25 74 -81 180 -114 234l358 226c36 -56 83 -134 122 -222c19 -43 37 -113 67 -149c32 -39 78 -58 138 -60h27c31 0 57 -25 57 -56v-312c0 -31 -26 -57 -57 -57h-39c-82 1 -121 0 -196 35c-73 -248 -482 -422 -700 -495z" />
    <glyph glyph-name="uni0632" unicode="&#x632;" horiz-adv-x="968" arabic-form="isolated" 
d="M32 -58c196 65 370 144 510 300c9 10 2 43 -10 81c-24 74 -74 154 -108 208l359 226c45 -73 112 -181 152 -303c52 -159 57 -331 -64 -480c-178 -218 -444 -347 -706 -434zM418 1144c0 105 84 189 189 189c104 0 189 -84 189 -189c0 -104 -85 -189 -189 -189
c-105 0 -189 85 -189 189z" />
    <glyph glyph-name="uniFEB0" unicode="&#x632;" horiz-adv-x="1126" arabic-form="final" 
d="M198 -460l-133 402c164 54 562 216 470 454c-25 74 -81 180 -114 234l358 226c36 -56 83 -134 122 -222c19 -43 37 -113 67 -149c32 -39 78 -58 138 -60h27c31 0 57 -25 57 -56v-312c0 -31 -26 -57 -57 -57h-39c-82 1 -121 0 -196 35c-73 -248 -482 -422 -700 -495z
M601 1024c-104 0 -189 85 -189 189s85 189 189 189s189 -85 189 -189s-85 -189 -189 -189z" />
    <glyph glyph-name="uni0698" unicode="&#x698;" horiz-adv-x="979" arabic-form="isolated" 
d="M32 -58c196 65 370 144 510 300c9 10 2 43 -10 81c-24 74 -74 154 -108 208l359 226c45 -73 112 -181 152 -303c52 -159 57 -331 -64 -480c-178 -218 -444 -347 -706 -434zM192 1079c0 104 85 189 189 189c76 0 141 -44 171 -109c31 65 96 109 171 109
c105 0 189 -85 189 -189s-84 -189 -189 -189c-75 0 -140 44 -171 108c-30 -64 -95 -108 -171 -108c-104 0 -189 85 -189 189zM548 1248c-104 0 -189 85 -189 189s85 189 189 189c105 0 189 -85 189 -189s-84 -189 -189 -189z" />
    <glyph glyph-name="uniFB8B" unicode="&#x698;" horiz-adv-x="1119" arabic-form="final" 
d="M188 -460l-133 402c164 54 562 216 470 454c-25 74 -81 180 -114 234l358 226c36 -56 83 -134 122 -222c19 -43 37 -113 67 -149c32 -39 78 -58 138 -60h27c31 0 57 -25 57 -56v-312c0 -31 -26 -57 -57 -57h-39c-82 1 -121 0 -196 35c-73 -248 -482 -422 -700 -495z
M469 1024c-105 0 -189 85 -189 189s84 189 189 189c75 0 140 -44 171 -108c30 64 95 108 171 108c104 0 189 -85 189 -189s-85 -189 -189 -189c-76 0 -141 44 -171 108c-31 -64 -96 -108 -171 -108zM447 1571c0 104 84 189 189 189c104 0 189 -85 189 -189
s-85 -189 -189 -189c-105 0 -189 85 -189 189z" />
    <glyph glyph-name="uni0633" unicode="&#x633;" horiz-adv-x="2580" arabic-form="isolated" 
d="M181 -169c-61 98 -95 219 -90 365c5 135 44 293 130 473l384 -182c-60 -127 -87 -228 -90 -306c-2 -56 8 -97 26 -127c38 -61 133 -91 201 -91c106 0 261 46 261 182c0 51 -5 102 -13 152c-10 64 -27 132 -42 193c-11 45 -28 102 -46 145l396 154c33 -89 58 -180 81 -273
c0 -1 0 -3 1 -4c0 -48 61 -81 103 -85c20 -2 39 1 57 9c15 7 30 20 43 39c-9 30 -17 60 -24 89c-12 47 -24 90 -31 105l377 194c28 -55 45 -120 64 -193c22 -86 50 -190 60 -194c34 -14 98 -26 125 -34c-8 93 -32 222 -51 375l-2 16l420 63l3 -16c34 -180 50 -332 56 -460
c12 -260 -93 -378 -276 -412c-23 -4 -48 -6 -74 -6c-123 0 -304 47 -414 108c-30 -23 -62 -42 -95 -58c-90 -43 -189 -56 -283 -46l-27 3c-69 -298 -367 -470 -659 -470c-4 0 -4 0 -25 1c-221 11 -426 97 -546 291z" />
    <glyph glyph-name="uniFEB2" unicode="&#x633;" horiz-adv-x="2884" arabic-form="final" 
d="M161 -169c-61 98 -95 219 -90 365c5 135 44 293 130 473l384 -182c-61 -127 -88 -228 -91 -306c-2 -56 9 -97 27 -127c37 -61 133 -91 200 -91c107 0 262 46 262 182c0 133 -36 294 -80 427c-9 27 -15 49 -21 63l395 154c36 -88 59 -181 82 -273v-4c1 -3 1 -6 2 -8
c14 -45 57 -72 102 -77c19 -2 39 1 56 9c16 7 30 20 43 39c-8 30 -16 60 -24 89c-13 47 -23 90 -31 105l377 194c29 -55 46 -120 65 -193c22 -86 49 -190 60 -194c34 -13 104 -26 130 -34c-7 93 -31 222 -50 375l-2 16l420 63l2 -16c14 -110 41 -305 131 -383
c48 -41 155 -72 216 -72h45c32 0 57 -25 57 -57v-311c0 -31 -26 -57 -57 -57h-45c-124 0 -270 42 -381 99c-65 -68 -168 -97 -261 -97c-112 0 -318 49 -418 108c-118 -91 -231 -104 -378 -104c-9 0 -19 2 -28 3c-70 -298 -365 -470 -658 -470c-226 0 -449 95 -571 292z" />
    <glyph glyph-name="uniFEB3" unicode="&#x633;" horiz-adv-x="1935" arabic-form="initial" 
d="M-74 57v312c0 32 24 56 56 56h64c67 0 175 22 218 76c45 57 69 150 75 275l424 -25c-6 -102 -20 -195 -46 -279c20 -23 53 -39 83 -42c20 -2 69 0 86 8c15 7 30 20 43 38c-9 31 -17 61 -24 90c-12 47 -24 90 -31 105l377 191c28 -55 45 -121 64 -193
c23 -86 50 -191 60 -195c34 -14 105 -26 132 -35c-8 94 -32 223 -51 376l-2 16l420 60l3 -16c34 -181 50 -333 56 -460c12 -261 -93 -378 -276 -411c-22 -4 -46 -6 -71 -6c-111 0 -248 36 -367 84c-20 8 -39 17 -57 28c-30 -23 -62 -42 -95 -57c-91 -42 -218 -56 -312 -45
c-107 13 -191 51 -278 113c-100 -71 -227 -115 -382 -122l-113 1c-31 0 -56 26 -56 57z" />
    <glyph glyph-name="uniFEB4" unicode="&#x633;" horiz-adv-x="2122" arabic-form="medial" 
d="M-78 367c0 31 25 56 56 57c72 0 185 17 233 77c45 57 68 151 75 276l423 -22c-5 -102 -20 -195 -45 -279c20 -23 52 -39 82 -42c20 -2 40 1 57 9c16 7 30 20 43 39c-8 30 -17 60 -24 89c-12 47 -23 90 -31 105l377 194c29 -55 46 -120 65 -193c22 -86 49 -190 60 -194
c34 -13 65 -26 91 -35c-7 94 -22 225 -50 376l-3 16l421 63l2 -16c15 -121 39 -310 132 -391c53 -46 149 -70 217 -72l42 -1c31 0 57 -25 57 -56v-310c0 -31 -26 -57 -57 -57h-42c-130 0 -273 39 -388 101c-64 -63 -162 -92 -251 -92c-99 0 -209 35 -327 80
c-21 8 -40 18 -57 28c-30 -23 -62 -42 -96 -58c-90 -42 -188 -57 -282 -47c-107 12 -192 49 -279 111c-100 -72 -225 -124 -380 -124c-4 0 -23 0 -47 -1h-17c-31 0 -57 26 -57 57v312z" />
    <glyph glyph-name="uni0634" unicode="&#x634;" horiz-adv-x="2572" arabic-form="isolated" 
d="M181 -169c-61 98 -95 219 -90 365c5 135 44 293 130 473l384 -182c-60 -127 -87 -228 -90 -306c-2 -56 8 -97 26 -127c38 -61 133 -91 201 -91c106 0 261 46 261 182c0 51 -5 102 -13 152c-10 64 -27 132 -42 193c-11 45 -28 102 -46 145l396 154c33 -89 58 -180 81 -273
c0 -1 0 -3 1 -4c0 -48 61 -81 103 -85c20 -2 39 1 57 9c15 7 30 20 43 39c-9 30 -17 60 -24 89c-12 47 -24 90 -31 105l377 194c28 -55 45 -120 64 -193c22 -86 50 -190 60 -194c34 -14 98 -26 125 -34c-8 93 -32 222 -51 375l-2 16l420 63l3 -16c34 -180 50 -332 56 -460
c12 -260 -93 -378 -276 -412c-23 -4 -48 -6 -74 -6c-123 0 -304 47 -414 108c-30 -23 -62 -42 -95 -58c-90 -43 -189 -56 -283 -46l-27 3c-69 -298 -367 -470 -659 -470c-4 0 -4 0 -25 1c-221 11 -426 97 -546 291zM1572 1016c-104 0 -189 85 -189 189c0 105 85 189 189 189
c76 0 141 -44 171 -108c31 64 96 108 171 108c105 0 189 -84 189 -189c0 -104 -84 -189 -189 -189c-75 0 -140 45 -171 109c-30 -64 -95 -109 -171 -109zM1555 1562c0 105 85 189 189 189c105 0 189 -84 189 -189c0 -104 -84 -189 -189 -189c-104 0 -189 85 -189 189z" />
    <glyph glyph-name="uniFEB6" unicode="&#x634;" horiz-adv-x="2882" arabic-form="final" 
d="M161 -169c-61 98 -95 219 -90 365c5 135 44 293 130 473l384 -182c-61 -127 -88 -228 -91 -306c-2 -56 9 -97 27 -127c37 -61 133 -91 200 -91c107 0 262 46 262 182c0 133 -36 294 -80 427c-9 27 -15 49 -21 63l395 154c36 -88 59 -181 82 -273v-4c1 -3 1 -6 2 -8
c14 -45 57 -72 102 -77c19 -2 39 1 56 9c16 7 30 20 43 39c-8 30 -16 60 -24 89c-13 47 -23 90 -31 105l377 194c29 -55 46 -120 65 -193c22 -86 49 -190 60 -194c34 -13 104 -26 130 -34c-7 93 -31 222 -50 375l-2 16l420 63l2 -16c14 -110 41 -305 131 -383
c48 -41 155 -72 216 -72h45c32 0 57 -25 57 -57v-311c0 -31 -26 -57 -57 -57h-45c-124 0 -270 42 -381 99c-65 -68 -168 -97 -261 -97c-112 0 -318 49 -418 108c-118 -91 -231 -104 -378 -104c-9 0 -19 2 -28 3c-70 -298 -365 -470 -658 -470c-226 0 -449 95 -571 292z
M1383 1205c0 105 85 189 189 189c76 0 141 -44 171 -108c31 64 96 108 171 108c105 0 189 -84 189 -189c0 -104 -84 -189 -189 -189c-75 0 -140 45 -171 109c-30 -64 -95 -109 -171 -109c-104 0 -189 85 -189 189zM1744 1373c-104 0 -189 85 -189 189c0 105 85 189 189 189
c105 0 189 -84 189 -189c0 -104 -84 -189 -189 -189z" />
    <glyph glyph-name="uniFEB7" unicode="&#x634;" horiz-adv-x="1938" arabic-form="initial" 
d="M-74 57v312c0 32 24 56 56 56h64c67 0 175 22 218 76c45 57 69 150 75 275l424 -25c-6 -102 -20 -195 -46 -279c20 -23 53 -39 83 -42c20 -2 69 0 86 8c15 7 30 20 43 38c-9 31 -17 61 -24 90c-12 47 -24 90 -31 105l377 191c28 -55 45 -121 64 -193
c23 -86 50 -191 60 -195c34 -14 105 -26 132 -35c-8 94 -32 223 -51 376l-2 16l420 60l3 -16c34 -181 50 -333 56 -460c12 -261 -93 -378 -276 -411c-22 -4 -46 -6 -71 -6c-111 0 -248 36 -367 84c-20 8 -39 17 -57 28c-30 -23 -62 -42 -95 -57c-91 -42 -218 -56 -312 -45
c-107 13 -191 51 -278 113c-100 -71 -227 -115 -382 -122l-113 1c-31 0 -56 26 -56 57zM766 1205c0 105 84 189 189 189c75 0 140 -44 171 -108c30 64 95 108 171 108c104 0 189 -84 189 -189c0 -104 -85 -189 -189 -189c-76 0 -141 45 -171 109c-31 -64 -96 -109 -171 -109
c-105 0 -189 85 -189 189zM1127 1373c-105 0 -189 85 -189 189c0 105 84 189 189 189c104 0 189 -84 189 -189c0 -104 -85 -189 -189 -189z" />
    <glyph glyph-name="uniFEB8" unicode="&#x634;" horiz-adv-x="2115" arabic-form="medial" 
d="M-30 0c-32 0 -57 26 -57 57v312c0 41 34 57 70 57h29c217 0 255 168 264 352l424 -21c-5 -102 -20 -195 -46 -279c22 -22 51 -39 83 -42c20 -2 40 1 57 9c15 7 30 19 43 38c-9 31 -16 61 -24 90c-13 47 -23 90 -31 105l377 194c28 -55 45 -121 64 -193
c23 -86 50 -190 61 -194c34 -13 65 -26 91 -35c-8 94 -22 225 -50 376l-3 16l420 63l3 -16c8 -45 12 -87 19 -128c15 -84 46 -206 113 -264c48 -41 155 -72 216 -72h43c31 0 57 -25 57 -57v-310c0 -32 -26 -56 -57 -56h-43c-124 0 -277 40 -387 101
c-63 -63 -163 -93 -251 -93c-100 0 -210 34 -328 81c-20 8 -39 17 -57 28c-30 -23 -62 -42 -95 -58c-90 -43 -188 -57 -283 -47c-107 12 -191 49 -278 111c-137 -99 -264 -125 -428 -125h-16zM692 1200c0 104 84 189 189 189c75 0 141 -44 171 -108c30 64 95 108 171 108
c104 0 189 -85 189 -189s-85 -189 -189 -189c-76 0 -141 44 -171 108c-30 -64 -96 -108 -171 -108c-105 0 -189 85 -189 189zM864 1557c0 104 84 189 189 189c104 0 189 -85 189 -189s-85 -189 -189 -189c-105 0 -189 85 -189 189z" />
    <glyph glyph-name="uni0635" unicode="&#x635;" horiz-adv-x="2707" arabic-form="isolated" 
d="M157 -140c-60 98 -94 219 -89 364c5 136 44 293 130 474l383 -183c-60 -126 -87 -227 -90 -306c-2 -55 8 -97 27 -127c38 -61 132 -90 200 -90c67 0 135 14 191 53c40 28 65 69 70 128c1 11 0 -7 0 9c0 139 -50 353 -100 481l386 174c3 -6 6 -12 9 -19v-1
c12 -27 26 -63 41 -103c22 -60 38 -115 42 -124c26 -58 69 -92 115 -114v2c3 0 69 71 141 149c171 185 366 395 653 378l22 -3c160 -28 292 -119 362 -269c47 -100 63 -220 42 -346c-8 -48 -22 -98 -41 -150l-34 -93l-95 -33c-245 -85 -514 -111 -772 -111v2
c-122 6 -241 30 -356 71c-53 -319 -359 -505 -666 -505v-1c-224 0 -450 97 -571 293zM2065 501c0 -58 47 -105 105 -105s105 47 105 105s-47 105 -105 105s-105 -47 -105 -105z" />
    <glyph glyph-name="uniFEBA" unicode="&#x635;" horiz-adv-x="2856" arabic-form="final" 
d="M192 -140c-61 98 -95 219 -90 364c5 136 44 294 130 474l383 -183c-60 -126 -87 -227 -90 -306c-2 -55 9 -96 27 -126c37 -60 133 -91 200 -91c10 0 -6 1 11 1v-1c107 0 251 56 251 182c0 146 -45 346 -101 490l386 173c22 -42 87 -240 92 -247c35 -58 73 -93 115 -114v2
c3 0 69 71 141 150c95 104 199 215 321 289c97 59 205 96 332 88c169 -20 312 -115 385 -272c41 -88 58 -191 47 -301c42 -7 83 -7 111 -7h17c31 0 57 -25 57 -57v-311c0 -31 -26 -57 -57 -57h-17c-133 0 -269 19 -388 80c-192 -55 -422 -90 -643 -80c-9 0 -18 1 -28 1v1
c-113 5 -252 34 -356 72c-53 -319 -358 -506 -665 -506v-1c-5 0 -5 1 -26 2c-220 9 -426 99 -545 291zM2104 503c0 -58 47 -105 105 -105s105 47 105 105s-47 105 -105 105s-105 -47 -105 -105z" />
    <glyph glyph-name="uniFEBB" unicode="&#x635;" horiz-adv-x="1884" arabic-form="initial" 
d="M-66 369c0 32 25 57 56 57h58c70 0 102 62 104 125c1 38 -5 86 -22 145l405 128c45 -130 104 -224 174 -288c24 26 55 58 86 92c93 102 187 204 304 279c113 73 236 111 370 96c159 -28 293 -119 363 -269c47 -101 62 -220 41 -346c-8 -49 -22 -99 -41 -150l-34 -93
l-95 -33c-202 -70 -424 -125 -639 -125c-225 0 -437 60 -613 206c-9 -10 -18 -21 -27 -30c-88 -89 -228 -163 -357 -163h-77c-31 0 -56 26 -56 57v312zM1348 608c-58 0 -105 -47 -105 -105s47 -105 105 -105s105 47 105 105s-47 105 -105 105z" />
    <glyph glyph-name="uniFEBC" unicode="&#x635;" horiz-adv-x="2013" arabic-form="medial" 
d="M-62 57v312c0 32 25 57 56 57h32c52 2 81 -7 122 34c17 17 31 46 32 93c1 37 -5 85 -22 145l406 127c44 -129 103 -223 173 -288c24 26 55 58 86 92c172 184 365 395 652 378l22 -3c162 -29 291 -117 363 -269c42 -88 58 -191 47 -301c20 -5 83 -9 112 -9h20
c31 0 57 -25 57 -56v-312c0 -31 -26 -57 -57 -57h-20c-126 0 -275 24 -388 81c-184 -57 -366 -92 -538 -92c-224 0 -438 60 -613 206c-67 -82 -169 -147 -270 -176c-69 -20 -124 -19 -189 -19h-27c-31 0 -56 26 -56 57zM1266 503c0 -58 47 -105 105 -105s105 47 105 105
s-47 105 -105 105s-105 -47 -105 -105z" />
    <glyph glyph-name="uni0636" unicode="&#x636;" horiz-adv-x="2697" arabic-form="isolated" 
d="M157 -140c-60 98 -94 219 -89 364c5 136 44 293 130 474l383 -183c-60 -126 -87 -227 -90 -306c-2 -55 8 -97 27 -127c38 -61 132 -90 200 -90c67 0 135 14 191 53c40 28 65 69 70 128c1 11 0 -7 0 9c0 139 -50 353 -100 481l386 174c3 -6 6 -12 9 -19v-1
c12 -27 26 -63 41 -103c22 -60 38 -115 42 -124c26 -58 69 -92 115 -114v2c3 0 69 71 141 149c171 185 366 395 653 378l22 -3c160 -28 292 -119 362 -269c47 -100 63 -220 42 -346c-8 -48 -22 -98 -41 -150l-34 -93l-95 -33c-245 -85 -514 -111 -772 -111v2
c-122 6 -241 30 -356 71c-53 -319 -359 -505 -666 -505v-1c-224 0 -450 97 -571 293zM1383 1231c0 104 84 189 189 189c104 0 189 -85 189 -189c0 -105 -85 -189 -189 -189c-105 0 -189 84 -189 189zM2065 501c0 -58 47 -105 105 -105s105 47 105 105s-47 105 -105 105
s-105 -47 -105 -105z" />
    <glyph glyph-name="uniFEBE" unicode="&#x636;" horiz-adv-x="2835" arabic-form="final" 
d="M168 -140c-61 98 -95 219 -90 364c5 136 44 294 130 474l383 -183c-60 -126 -87 -227 -90 -306c-2 -55 9 -96 27 -126c37 -60 133 -91 200 -91c10 0 -6 1 11 1v-1c107 0 251 56 251 182c0 146 -45 346 -101 490l386 173c22 -42 87 -240 92 -247c35 -58 73 -93 115 -114v2
c3 0 69 71 141 150c95 104 199 215 321 289c97 59 205 96 332 88c169 -20 312 -115 385 -272c41 -88 58 -191 47 -301c42 -7 83 -7 111 -7h47c31 0 57 -25 57 -57v-311c0 -31 -26 -57 -57 -57h-47c-133 0 -269 19 -388 80c-192 -55 -422 -90 -643 -80c-9 0 -18 1 -28 1v1
c-113 5 -252 34 -356 72c-53 -319 -358 -506 -665 -506v-1c-5 0 -5 1 -26 2c-220 9 -426 99 -545 291zM1407 1232c0 105 84 189 189 189c104 0 189 -84 189 -189c0 -104 -85 -189 -189 -189c-105 0 -189 85 -189 189zM2080 503c0 -58 47 -105 105 -105s105 47 105 105
s-47 105 -105 105s-105 -47 -105 -105z" />
    <glyph glyph-name="uniFEBF" unicode="&#x636;" horiz-adv-x="1871" arabic-form="initial" 
d="M-8 0c-31 0 -56 26 -56 57v312c0 32 25 57 56 57h51c70 0 102 62 104 125c1 38 -5 86 -22 145l405 128c45 -130 104 -224 174 -288c24 26 55 58 86 92c93 102 187 204 304 279c113 73 236 111 370 96c159 -28 293 -119 363 -269c47 -101 62 -220 41 -346
c-8 -49 -22 -99 -41 -150l-34 -93l-95 -33c-202 -70 -424 -125 -639 -125c-225 0 -437 60 -613 206c-9 -10 -18 -21 -27 -30c-88 -89 -228 -163 -357 -163h-70zM532 1240c0 104 85 189 189 189s189 -85 189 -189c0 -105 -85 -189 -189 -189s-189 84 -189 189zM1343 608
c-58 0 -105 -47 -105 -105s47 -105 105 -105s105 47 105 105s-47 105 -105 105z" />
    <glyph glyph-name="uniFEC0" unicode="&#x636;" horiz-adv-x="2085" arabic-form="medial" 
d="M-4 0c-31 0 -56 26 -56 57v312c0 32 25 57 56 57h49c52 2 81 -7 122 34c17 17 31 46 32 93c1 37 -5 85 -22 145l406 127c44 -129 103 -223 173 -288c24 26 55 58 86 92c172 184 365 395 652 378l22 -3c162 -29 291 -117 363 -269c42 -88 58 -191 47 -301
c20 -5 83 -9 112 -9h56c31 0 57 -25 57 -56v-312c0 -31 -26 -57 -57 -57h-56c-126 0 -275 24 -388 81c-184 -57 -366 -92 -538 -92c-224 0 -438 60 -613 206c-67 -82 -169 -147 -270 -176c-69 -20 -124 -19 -189 -19h-44zM772 1044c-105 0 -189 84 -189 189
c0 104 84 189 189 189c104 0 189 -85 189 -189c0 -105 -85 -189 -189 -189zM1390 608c-58 0 -105 -47 -105 -105s47 -105 105 -105s105 47 105 105s-47 105 -105 105z" />
    <glyph glyph-name="uni0637" unicode="&#x637;" horiz-adv-x="1913" arabic-form="isolated" 
d="M315 137c-77 39 -178 95 -246 147l264 331c6 -5 31 -21 60 -37l42 -24v799l429 117v-799c162 173 348 352 614 336l22 -3c159 -23 294 -123 363 -269c47 -100 62 -219 41 -346c-8 -48 -21 -98 -40 -149l-35 -94l-95 -32c-109 -37 -235 -68 -371 -87
c-127 -18 -263 -27 -400 -24c-233 5 -465 43 -648 134zM1285 490c0 -58 47 -105 105 -105s105 47 105 105s-47 105 -105 105s-105 -47 -105 -105z" />
    <glyph glyph-name="uniFEC2" unicode="&#x637;" horiz-adv-x="1991" arabic-form="final" 
d="M83 239l264 330c35 -27 77 -51 124 -70v853l429 117v-690c138 132 298 240 508 228l22 -3c161 -28 292 -117 363 -269c41 -88 58 -191 47 -301c43 -7 83 -9 112 -9h70c31 0 57 -25 57 -56v-312c0 -31 -26 -57 -57 -57h-70c-124 0 -279 24 -390 82
c-163 -45 -334 -69 -503 -77c-89 -4 -178 -4 -265 1c-269 16 -530 88 -711 233zM1315 594c-58 0 -105 -47 -105 -105s47 -105 105 -105s105 47 105 105s-47 105 -105 105z" />
    <glyph glyph-name="uniFEC3" unicode="&#x637;" horiz-adv-x="1547" arabic-form="initial" 
d="M-40 3c-32 0 -57 26 -57 57v312c0 31 25 57 57 57h159v927l429 116v-745c151 155 325 298 564 283l22 -3c158 -23 295 -123 363 -269c47 -100 62 -219 41 -346c-8 -48 -21 -98 -40 -149l-35 -94c-127 -44 -248 -78 -370 -103c-157 -32 -316 -46 -492 -43h-641zM921 518
c0 -58 47 -105 105 -105s105 47 105 105s-47 105 -105 105s-105 -47 -105 -105z" />
    <glyph glyph-name="uniFEC4" unicode="&#x637;" horiz-adv-x="1644" arabic-form="medial" 
d="M-123 369c0 31 26 56 57 56h172v926l429 116v-740c79 81 165 157 263 210c87 47 185 75 296 68l22 -3c158 -23 295 -123 363 -269c41 -88 58 -191 47 -301c42 -7 81 -7 109 -7h23c31 0 57 -25 57 -56v-312c0 -31 -26 -57 -57 -57h-22c-132 0 -270 19 -389 80
c-215 -60 -438 -80 -660 -80h-653c-31 0 -57 26 -57 57v312zM900 490c0 -58 47 -105 105 -105s105 47 105 105s-47 105 -105 105s-105 -47 -105 -105z" />
    <glyph glyph-name="uni0638" unicode="&#x638;" horiz-adv-x="1963" arabic-form="isolated" 
d="M363 137c-77 39 -178 95 -246 147l264 331c6 -5 31 -21 60 -37l42 -24v799l429 117v-799c162 173 348 352 614 336l22 -3c159 -23 294 -123 363 -269c47 -100 62 -219 41 -346c-8 -48 -21 -98 -40 -149l-35 -94l-95 -32c-109 -37 -235 -68 -371 -87
c-127 -18 -263 -27 -400 -24c-233 5 -465 43 -648 134zM1143 1377c0 104 84 189 189 189c104 0 189 -85 189 -189s-85 -189 -189 -189c-105 0 -189 85 -189 189zM1438 595c-58 0 -105 -47 -105 -105s47 -105 105 -105s105 47 105 105s-47 105 -105 105z" />
    <glyph glyph-name="uniFEC6" unicode="&#x638;" horiz-adv-x="1965" arabic-form="final" 
d="M794 6c-269 17 -530 88 -711 233l264 330c35 -27 77 -51 124 -70v853l429 117v-690c138 132 298 240 508 228l22 -3c161 -28 292 -117 363 -269c41 -88 58 -191 47 -301c43 -7 83 -9 112 -9h31c31 0 57 -25 57 -56v-312c0 -31 -26 -57 -57 -57h-31
c-124 0 -279 24 -390 82c-163 -45 -334 -69 -503 -77c-89 -4 -178 -5 -265 1zM1147 1376c0 105 85 189 189 189c105 0 189 -84 189 -189c0 -104 -84 -189 -189 -189c-104 0 -189 85 -189 189zM1315 594c-58 0 -105 -47 -105 -105s47 -105 105 -105s105 47 105 105
s-47 105 -105 105z" />
    <glyph glyph-name="uniFEC7" unicode="&#x638;" horiz-adv-x="1549" arabic-form="initial" 
d="M-40 3c-32 0 -57 26 -57 57v312c0 31 25 57 57 57h159v927l429 116v-745c151 155 325 298 564 283l22 -3c158 -23 295 -123 363 -269c47 -100 62 -219 41 -346c-8 -48 -21 -98 -40 -149l-35 -94c-127 -44 -248 -78 -370 -103c-157 -32 -316 -46 -492 -43h-641zM893 1380
c0 104 85 189 189 189s189 -85 189 -189c0 -105 -85 -189 -189 -189s-189 84 -189 189zM921 518c0 -58 47 -105 105 -105s105 47 105 105s-47 105 -105 105s-105 -47 -105 -105z" />
    <glyph glyph-name="uniFEC8" unicode="&#x638;" horiz-adv-x="1622" arabic-form="medial" 
d="M-67 57v312c0 31 26 56 57 56h116v926l429 116v-740c79 81 165 157 263 210c87 47 185 75 296 68l22 -3c158 -23 295 -123 363 -269c41 -88 58 -191 47 -301c42 -7 81 -7 109 -7h9c31 0 57 -25 57 -56v-312c0 -31 -26 -57 -57 -57h-8c-132 0 -270 19 -389 80
c-215 -60 -438 -80 -660 -80h-597c-31 0 -57 26 -57 57zM867 1377c0 104 85 190 189 189s189 -85 189 -189c0 -105 -85 -188 -189 -189s-189 84 -189 189zM900 490c0 -58 47 -105 105 -105s105 47 105 105s-47 105 -105 105s-105 -47 -105 -105z" />
    <glyph glyph-name="uni0639" unicode="&#x639;" horiz-adv-x="1697" arabic-form="isolated" 
d="M87 -15c-27 131 -16 270 37 396c74 176 225 299 396 375c-26 77 -44 149 -51 217c-14 135 13 250 99 343c115 125 212 157 310 157c50 0 99 -7 152 -16c25 -4 50 -6 76 -6c150 0 303 70 366 168l139 -400c-195 -161 -348 -199 -477 -199c-63 0 -120 10 -173 18
c-9 1 -27 7 -42 7c-17 0 -31 -6 -28 -29c5 -44 22 -101 47 -168h14h676l63 -424h-739c-76 0 -152 -14 -220 -39c-79 -29 -183 -88 -218 -170c-19 -45 -22 -96 -12 -145c20 -95 82 -173 171 -212c74 -32 182 -43 296 -41c143 2 287 26 382 59l140 -400
c-134 -46 -328 -81 -516 -83c-167 -2 -336 20 -468 75c-216 90 -373 288 -420 517z" />
    <glyph glyph-name="uniFECA" unicode="&#x639;" horiz-adv-x="1677" arabic-form="final" 
d="M123 -268c-43 144 -38 292 7 428c74 225 238 375 444 477c-39 60 -80 123 -120 186c-33 52 -63 103 -107 166c-9 13 -17 25 -24 37l364 218c16 -24 64 -48 93 -45c33 3 71 8 110 14c83 13 170 24 253 24s162 -11 233 -43c320 -144 227 -545 19 -767c17 -1 36 -2 56 -2
h245c32 0 57 -25 57 -56v-312c0 -31 -25 -57 -57 -57h-245c-141 0 -258 17 -394 101c-70 43 -141 103 -219 189c-130 -50 -258 -121 -305 -261c-19 -56 -21 -117 -3 -176c25 -84 100 -141 193 -171c91 -29 199 -30 273 -31c86 -1 173 8 249 23l141 -404
c-110 -26 -244 -42 -381 -42c-361 0 -766 117 -882 504zM1058 872c-58 0 -105 -47 -105 -105s47 -105 105 -105s105 47 105 105s-47 105 -105 105z" />
    <glyph glyph-name="uniFECB" unicode="&#x639;" horiz-adv-x="1293" arabic-form="initial" 
d="M-38 1c-31 0 -56 25 -56 56v312c0 32 25 57 57 57h191c-16 53 -26 104 -31 152c-14 135 13 250 99 344c114 125 211 157 309 157c49 0 99 -8 152 -17c24 -4 49 -6 74 -6c151 0 305 70 368 169l140 -401c-194 -160 -348 -199 -475 -199c-64 0 -122 11 -175 19
c-9 1 -27 7 -43 7c-17 0 -31 -6 -28 -29c6 -49 26 -113 55 -188c79 5 154 13 228 20c104 10 330 21 433 26l21 -424c-135 3 -271 -10 -414 -24c-156 -15 -320 -32 -512 -32z" />
    <glyph glyph-name="uniFECC" unicode="&#x639;" horiz-adv-x="1503" arabic-form="medial" 
d="M-60 371c0 31 26 57 57 57l423 -1c-141 164 -262 344 -340 461c-6 9 -11 18 -16 26l364 217c38 -57 76 -74 118 -74c43 0 89 17 142 29c83 18 179 31 271 31c184 0 376 -61 447 -249c22 -58 30 -124 20 -199c-9 -71 -41 -157 -97 -243h189c32 0 57 -26 57 -57v-311
c0 -32 -25 -57 -57 -57h-418c-85 0 -169 24 -250 64c-115 -39 -248 -65 -401 -64h-452c-31 0 -57 25 -57 56v314zM758 620c0 -58 47 -105 105 -105s105 47 105 105s-47 105 -105 105s-105 -47 -105 -105z" />
    <glyph glyph-name="uni063A" unicode="&#x63a;" horiz-adv-x="1739" arabic-form="isolated" 
d="M130 -15c-27 131 -16 270 37 396c74 176 225 299 396 375c-26 77 -44 149 -51 217c-14 135 13 250 99 343c115 125 212 157 310 157c50 0 99 -7 152 -16c25 -4 50 -6 76 -6c150 0 303 70 366 168l139 -400c-195 -161 -348 -199 -477 -199c-63 0 -120 10 -173 18
c-9 1 -27 7 -42 7c-17 0 -31 -6 -28 -29c5 -44 22 -101 47 -168h14h676l63 -424h-739c-76 0 -152 -14 -220 -39c-79 -29 -183 -88 -218 -170c-19 -45 -22 -96 -12 -145c20 -95 82 -173 171 -212c74 -32 182 -43 296 -41c143 2 287 26 382 59l140 -400
c-134 -46 -328 -81 -516 -83c-167 -2 -336 20 -468 75c-216 90 -373 288 -420 517zM994 1740c0 105 84 189 189 189c104 0 189 -84 189 -189c0 -104 -85 -189 -189 -189c-105 0 -189 85 -189 189z" />
    <glyph glyph-name="uniFECE" unicode="&#x63a;" horiz-adv-x="1629" arabic-form="final" 
d="M108 -268c-43 144 -39 292 6 428c73 222 240 377 445 477c-39 60 -80 124 -120 186c-33 52 -63 103 -107 166c-9 13 -17 25 -24 37l364 218c16 -24 64 -48 93 -45c33 3 71 8 110 14c83 13 170 24 253 24s162 -11 233 -43c320 -144 227 -545 19 -767c17 -1 36 -2 55 -2
h197c31 0 57 -25 57 -56v-312c0 -31 -26 -57 -57 -57h-197c-141 0 -257 17 -393 101c-70 43 -141 103 -219 189c-127 -47 -261 -125 -305 -261c-18 -56 -21 -118 -3 -176c26 -84 100 -142 192 -171s200 -30 273 -31c87 -1 173 8 249 23l142 -404c-110 -26 -244 -42 -381 -42
c-361 0 -766 117 -882 504zM860 1563c0 105 85 189 189 189s189 -84 189 -189c0 -104 -85 -189 -189 -189s-189 85 -189 189zM938 767c0 -58 47 -105 105 -105s105 47 105 105s-47 105 -105 105s-105 -47 -105 -105z" />
    <glyph glyph-name="uniFECF" unicode="&#x63a;" horiz-adv-x="1264" arabic-form="initial" 
d="M-23 1c-31 0 -56 25 -56 56v312c0 32 25 57 57 57h155c-16 53 -26 104 -31 152c-14 135 13 250 99 344c114 125 211 157 309 157c49 0 99 -8 152 -17c24 -4 49 -6 74 -6c151 0 305 70 368 169l140 -401c-194 -160 -348 -199 -475 -199c-64 0 -122 11 -175 19
c-9 1 -27 7 -43 7c-17 0 -31 -6 -28 -29c6 -49 26 -113 55 -188c79 5 154 13 228 20c104 10 330 21 433 26l21 -424c-135 3 -271 -10 -414 -24c-156 -15 -320 -33 -512 -32zM583 1344c0 105 85 189 189 189c105 0 189 -84 189 -189c0 -104 -84 -189 -189 -189
c-104 0 -189 85 -189 189z" />
    <glyph glyph-name="uniFED0" unicode="&#x63a;" horiz-adv-x="1501" arabic-form="medial" 
d="M-3 1c-31 0 -57 25 -57 56v314c0 31 26 57 57 57l423 -1c-141 164 -262 344 -340 461c-6 9 -11 18 -16 26l364 217c38 -57 76 -74 118 -74c43 0 89 17 142 29c83 18 179 31 271 31c184 0 376 -61 447 -249c22 -58 30 -124 20 -199c-9 -71 -41 -157 -97 -243h189
c32 0 57 -26 57 -57v-311c0 -32 -25 -57 -57 -57h-418c-85 0 -169 24 -250 64c-115 -39 -248 -65 -401 -64h-452zM548 1444c0 104 85 189 189 189c105 0 189 -85 189 -189s-84 -189 -189 -189c-104 0 -189 85 -189 189zM863 725c-58 0 -105 -47 -105 -105s47 -105 105 -105
s105 47 105 105s-47 105 -105 105z" />
    <glyph glyph-name="uni0641" unicode="&#x641;" horiz-adv-x="1910" arabic-form="isolated" 
d="M104 422c-38 119 -36 261 20 429l402 -133c-25 -75 -29 -130 -17 -168c11 -36 48 -64 100 -85c100 -40 225 -49 332 -49c-2 3 -4 6 -7 9c-124 125 -102 305 -25 456c24 47 60 106 97 159c90 128 199 223 365 223c136 0 282 -68 369 -170c107 -125 161 -363 169 -520
c8 -167 -35 -321 -155 -406c-108 -76 -496 -178 -848 -174c-315 4 -694 88 -802 429zM1330 1425c-104 0 -189 84 -189 189c0 104 85 189 189 189s189 -85 189 -189c0 -105 -85 -189 -189 -189zM1372 813c-58 0 -105 -47 -105 -105s47 -105 105 -105s105 47 105 105
s-47 105 -105 105z" />
    <glyph glyph-name="uniFED2" unicode="&#x641;" horiz-adv-x="1918" arabic-form="final" 
d="M63 406c-38 121 -36 267 22 439l402 -132c-27 -81 -30 -139 -18 -180c11 -37 47 -65 95 -85c100 -41 209 -48 316 -48c-73 73 -109 164 -109 268c0 147 83 280 166 396c86 120 180 233 342 233c50 0 99 -13 146 -35c248 -118 361 -462 375 -714c2 -37 1 -73 -3 -108
c21 -10 44 -15 65 -15h58c31 0 57 -25 57 -56v-312c0 -31 -26 -57 -57 -57h-58c-101 0 -215 29 -314 94c-159 -62 -441 -123 -704 -118c-310 6 -676 97 -781 430zM1078 1614c0 104 85 189 189 189s189 -85 189 -189c0 -105 -85 -189 -189 -189s-189 84 -189 189zM1165 746
c0 -58 47 -105 105 -105s105 47 105 105s-47 105 -105 105s-105 -47 -105 -105z" />
    <glyph glyph-name="uniFED3" unicode="&#x641;" horiz-adv-x="1150" arabic-form="initial" 
d="M-56 57v312c0 31 26 56 57 56h254c-87 71 -159 183 -174 295c-10 77 0 146 32 218c49 110 188 229 283 305c68 55 148 89 236 89c208 0 373 -174 442 -357c55 -145 81 -271 81 -380c0 -138 -38 -250 -105 -340c-147 -199 -405 -255 -639 -255h-410c-31 0 -57 26 -57 57z
M443 1708c0 104 84 189 189 189c104 0 189 -85 189 -189c0 -105 -85 -189 -189 -189c-105 0 -189 84 -189 189zM617 873c-58 0 -105 -47 -105 -105s47 -105 105 -105s105 47 105 105s-47 105 -105 105z" />
    <glyph glyph-name="uniFED4" unicode="&#x641;" horiz-adv-x="1202" arabic-form="medial" 
d="M-82 368c0 32 25 57 57 57h118c-21 55 -30 110 -30 168c0 96 28 194 78 274c23 37 48 72 80 99c135 114 321 211 499 211c109 0 223 -31 308 -135c9 -11 19 -23 30 -37c41 -53 76 -178 76 -310c0 -84 -11 -179 -40 -269c7 -1 14 -1 20 -1h99c31 0 57 -25 57 -56v-312
c0 -31 -26 -57 -57 -57h-99c-66 0 -204 17 -352 49c-74 -31 -159 -49 -257 -49h-530c-31 0 -56 25 -56 57zM466 1525c0 104 85 189 189 189s189 -85 189 -189s-85 -189 -189 -189s-189 85 -189 189zM608 697c-58 0 -105 -47 -105 -105s47 -105 105 -105s105 47 105 105
s-47 105 -105 105z" />
    <glyph glyph-name="uni0642" unicode="&#x642;" horiz-adv-x="1729" arabic-form="isolated" 
d="M165 -159c-172 297 -116 760 105 1031l302 -298c-94 -136 -132 -346 -56 -481c40 -71 110 -121 214 -125c144 -6 315 37 466 102c-275 22 -581 53 -563 455c6 131 84 260 185 363c101 104 281 232 434 232c345 0 455 -538 475 -796c19 -242 -31 -467 -162 -543
c-236 -137 -570 -250 -852 -237c-224 10 -432 96 -548 297zM868 1447c0 105 85 189 189 189c75 0 141 -44 171 -108c30 64 95 108 171 108c104 0 189 -85 189 -189s-85 -189 -189 -189c-76 0 -141 45 -171 109c-30 -64 -96 -109 -171 -109c-104 0 -189 85 -189 189z
M1162 665c-58 0 -105 -47 -105 -105s47 -105 105 -105s105 47 105 105s-47 105 -105 105z" />
    <glyph glyph-name="uniFED6" unicode="&#x642;" horiz-adv-x="1830" arabic-form="final" 
d="M102 131c-31 163 -7 354 83 563l389 -168c-55 -127 -71 -233 -55 -317c27 -140 144 -195 276 -206c72 -6 154 1 243 22c-182 40 -348 149 -365 434c-8 131 65 303 176 426c98 109 232 190 382 190c185 0 296 -117 402 -258c3 -4 8 -14 17 -31c54 -101 94 -231 114 -361
h110c31 0 57 -25 57 -56v-312c0 -31 -26 -57 -57 -57h-139c-117 -323 -678 -445 -975 -420c-325 27 -596 220 -658 551zM1055 1197c-104 0 -189 84 -189 189c0 104 85 189 189 189c76 0 141 -45 171 -109c30 64 96 109 171 109c105 0 189 -85 189 -189
c0 -105 -84 -189 -189 -189c-75 0 -141 44 -171 108c-30 -64 -95 -108 -171 -108zM1072 514c0 -58 47 -105 105 -105s105 47 105 105s-47 105 -105 105s-105 -47 -105 -105z" />
    <glyph glyph-name="uniFED7" unicode="&#x642;" horiz-adv-x="1159" arabic-form="initial" 
d="M1 0c-31 0 -57 26 -57 57v312c0 31 26 56 57 56h254c-87 71 -159 183 -174 295c-10 77 0 146 32 218c49 110 188 229 283 305c68 55 148 89 236 89c208 0 373 -174 442 -357c55 -145 81 -271 81 -380c0 -138 -38 -250 -105 -340c-147 -199 -405 -255 -639 -255h-410z
M266 1623c0 104 85 189 189 189c76 0 141 -45 171 -109c30 64 95 109 171 109c104 0 189 -85 189 -189c0 -105 -85 -189 -189 -189c-76 0 -141 44 -171 108c-30 -64 -96 -108 -171 -108c-104 0 -189 84 -189 189zM617 873c-58 0 -105 -47 -105 -105s47 -105 105 -105
s105 47 105 105s-47 105 -105 105z" />
    <glyph glyph-name="uniFED8" unicode="&#x642;" horiz-adv-x="1197" arabic-form="medial" 
d="M-82 368c0 32 25 57 57 57h118c-21 55 -30 110 -30 168c0 96 28 194 78 274c23 37 48 72 80 99c135 114 321 211 499 211c109 0 223 -31 308 -135c9 -11 19 -23 30 -37c41 -53 76 -178 76 -310c0 -84 -11 -179 -40 -269c7 -1 14 -1 20 -1h116c31 0 57 -25 57 -56v-312
c0 -31 -26 -57 -57 -57h-116c-66 0 -204 17 -352 49c-74 -31 -159 -49 -257 -49h-530c-31 0 -56 25 -56 57zM512 1336c-104 0 -189 85 -189 189s85 189 189 189c79 0 146 -48 174 -115c29 67 96 115 174 115c105 0 189 -85 189 -189s-84 -189 -189 -189
c-78 0 -145 47 -174 115c-28 -68 -95 -115 -174 -115zM503 592c0 -58 47 -105 105 -105s105 47 105 105s-48 105 -105 105c-58 0 -105 -47 -105 -105z" />
    <glyph glyph-name="uni0643" unicode="&#x643;" horiz-adv-x="1963" arabic-form="isolated" 
d="M92 273c-67 134 -69 303 16 513l393 -160c-35 -87 -43 -139 -30 -164c29 -58 253 -69 309 -69c64 0 130 5 194 13c143 18 256 44 279 67c4 4 4 32 3 70c-4 40 -25 169 -42 203l-85 -31c-19 50 -47 94 -73 134c-54 83 -99 153 -108 263c-12 153 122 289 315 396
c178 99 422 196 593 247l121 -407c-142 -43 -340 -119 -487 -199c104 -153 181 -385 189 -567c7 -160 -30 -315 -127 -411c-84 -83 -296 -156 -525 -186c-79 -10 -163 -16 -245 -16c-254 0 -565 54 -690 304z" />
    <glyph glyph-name="uniFB8F" unicode="&#x6a9;" horiz-adv-x="2082" arabic-form="final" 
d="M125 273c-67 134 -69 303 16 513l393 -160c-35 -87 -43 -139 -30 -164c29 -58 253 -69 309 -69c64 0 130 5 194 13c143 18 259 42 279 67c4 5 5 41 2 89c-4 67 -19 137 -44 191l-103 -38c-19 50 -47 94 -73 134c-54 83 -99 153 -108 263c-12 153 122 289 315 396
c178 99 422 196 593 247l121 -407c-141 -42 -336 -118 -483 -196c57 -87 108 -186 160 -288c108 -213 225 -439 338 -439h87c31 0 57 -25 57 -56v-312c0 -31 -26 -57 -57 -57h-87c-172 0 -302 71 -409 182c-3 -4 -7 -8 -10 -11c-84 -83 -296 -156 -525 -186
c-79 -10 -163 -16 -245 -16c-254 0 -565 54 -690 304z" />
    <glyph glyph-name="uniFB90" unicode="&#x6a9;" horiz-adv-x="1095" arabic-form="initial" 
d="M-69 369c0 31 25 56 57 56h379c32 0 55 3 72 8c1 20 -7 73 -22 123c-19 63 -50 131 -84 194l-87 -32c-19 50 -47 94 -73 134c-54 83 -101 154 -109 263c-12 154 123 290 316 397c178 99 422 195 593 246l121 -407c-148 -44 -355 -125 -504 -208
c132 -190 273 -469 273 -700c0 -292 -214 -443 -496 -443h-379c-32 0 -57 26 -57 57v312z" />
    <glyph glyph-name="uniFB91" unicode="&#x6a9;" horiz-adv-x="1197" arabic-form="medial" 
d="M-75 372c0 31 26 56 57 56h321c128 0 64 253 39 322l-86 -32c-19 50 -47 94 -73 134c-54 83 -101 154 -109 263c-12 154 123 290 316 397c178 99 422 195 593 246l121 -407c-145 -43 -346 -121 -494 -202c56 -85 105 -182 156 -282c108 -212 225 -442 338 -442h103
c32 0 57 -25 57 -56v-312c0 -31 -25 -57 -57 -57h-103c-171 0 -301 74 -408 185c-94 -127 -238 -185 -393 -185h-321c-31 0 -57 26 -57 57v315z" />
    <glyph glyph-name="uni06AF" unicode="&#x6af;" horiz-adv-x="1994" arabic-form="isolated" 
d="M97 273c-67 134 -69 303 16 513l393 -160c-35 -87 -43 -139 -30 -164c29 -58 253 -69 309 -69c64 0 130 5 194 13c143 18 256 44 279 67c4 4 4 32 3 70c-4 40 -25 169 -42 203l-85 -31c-19 50 -47 94 -73 134c-54 83 -99 153 -108 263c-12 153 122 289 315 396
c178 99 422 196 593 247l121 -407c-142 -43 -340 -119 -487 -199c104 -153 181 -385 189 -567c7 -160 -30 -315 -127 -411c-84 -83 -296 -156 -525 -186c-79 -10 -163 -16 -245 -16c-254 0 -565 54 -690 304zM1179 1507l-76 119c208 131 434 235 665 319l48 -133
c-225 -83 -433 -178 -637 -305z" />
    <glyph glyph-name="uniFB93" unicode="&#x6af;" horiz-adv-x="2075" arabic-form="final" 
d="M127 273c-67 134 -69 303 16 513l394 -160c-36 -87 -44 -139 -31 -164c29 -58 253 -69 309 -69c64 0 130 5 194 13c143 18 259 42 279 67c4 5 5 41 2 89c-4 67 -19 137 -43 191l-104 -38c-18 50 -47 94 -73 134c-54 83 -99 153 -108 263c-12 153 122 289 315 396
c178 99 422 196 593 247l122 -407c-142 -42 -337 -118 -484 -196c57 -87 108 -186 160 -288c108 -213 225 -439 338 -439h87c31 0 57 -25 57 -56v-312c0 -31 -26 -57 -57 -57h-87c-172 0 -302 71 -409 182c-3 -4 -7 -8 -10 -11c-84 -84 -296 -156 -525 -186
c-79 -10 -163 -16 -245 -16c-254 0 -565 54 -690 304zM1172 1522l-76 119c209 132 434 234 665 319l48 -133c-228 -85 -430 -176 -637 -305z" />
    <glyph glyph-name="uniFB94" unicode="&#x6af;" horiz-adv-x="1085" arabic-form="initial" 
d="M-71 369c0 31 25 56 57 56h379c32 0 55 3 72 8c1 20 -7 73 -22 123c-19 63 -50 131 -84 194l-87 -32c-19 50 -47 94 -73 134c-54 83 -101 154 -109 263c-12 154 123 290 316 397c178 99 422 195 593 246l121 -407c-148 -44 -355 -125 -504 -208
c132 -190 273 -469 273 -700c0 -292 -214 -443 -496 -443h-379c-32 0 -57 26 -57 57v312zM234 1651c214 125 439 219 673 300l45 -134c-223 -76 -443 -168 -646 -288z" />
    <glyph glyph-name="uniFB95" unicode="&#x6af;" horiz-adv-x="1185" arabic-form="medial" 
d="M-18 0c-31 0 -57 26 -57 57v315c0 31 26 56 57 56h321c128 0 64 253 39 322l-86 -32c-19 50 -47 94 -73 134c-54 83 -101 154 -109 263c-12 154 123 290 316 397c178 99 422 195 593 246l121 -407c-145 -43 -346 -121 -494 -202c56 -85 105 -182 156 -282
c108 -212 225 -442 338 -442h103c32 0 57 -25 57 -56v-312c0 -31 -25 -57 -57 -57h-103c-171 0 -301 74 -408 185c-94 -127 -238 -185 -393 -185h-321zM227 1491l-75 119c208 132 433 234 664 319l49 -133c-223 -82 -436 -179 -638 -305z" />
    <glyph glyph-name="uni0644" unicode="&#x644;" horiz-adv-x="1420" arabic-form="isolated" 
d="M178 -170c-61 98 -95 218 -90 364c5 136 44 293 130 474l384 -183c-61 -126 -88 -227 -91 -306c-2 -55 9 -97 27 -127c39 -63 131 -88 200 -90c61 -2 138 16 192 53c39 27 56 69 58 128v489v6v713l429 116v-1319c0 -2 0 -6 -1 -20c-15 -211 -104 -362 -244 -460
c-128 -90 -286 -131 -423 -131c-226 0 -449 96 -571 293z" />
    <glyph glyph-name="uniFEDE" unicode="&#x644;" horiz-adv-x="1554" arabic-form="final" 
d="M165 -170c-61 98 -95 218 -90 364c5 136 44 293 130 474l384 -183c-60 -126 -87 -227 -90 -306c-2 -55 8 -97 26 -127c39 -64 131 -88 201 -90c60 -2 138 16 191 53c39 27 56 69 58 128c1 86 2 172 2 258c-1 13 -2 26 -2 39v929l429 135v-1009c0 -36 30 -66 66 -66h97
c31 0 56 -25 56 -57v-315c0 -31 -25 -57 -56 -57h-152c-7 0 -15 0 -22 1c-72 -293 -368 -464 -657 -464c-226 0 -449 96 -571 293z" />
    <glyph glyph-name="uniFEDF" unicode="&#x644;" horiz-adv-x="568" arabic-form="initial" 
d="M-88 369c0 31 25 56 57 56h104c36 0 66 30 66 66v874l429 135v-1060c0 -242 -198 -440 -440 -440h-159c-32 0 -57 26 -57 57v312z" />
    <glyph glyph-name="uniFEE0" unicode="&#x644;" horiz-adv-x="654" arabic-form="medial" 
d="M-68 369c0 31 25 56 57 56h52c36 0 66 30 66 66v874l429 135v-1009c0 -36 29 -66 66 -66h61c31 0 56 -25 56 -56v-312c0 -31 -25 -57 -56 -57h-116c-83 0 -160 23 -226 62c-66 -39 -143 -62 -225 -62h-107c-32 0 -57 26 -57 57v312z" />
    <glyph glyph-name="uni0645" unicode="&#x645;" horiz-adv-x="1183" arabic-form="isolated" 
d="M0 293c-13 73 0 145 35 213c33 62 114 142 177 174l-165 104l290 371c74 85 161 138 262 126c278 -33 483 -341 576 -512c18 -33 30 -58 38 -73c63 -120 -156 -408 -240 -518c-116 62 -282 161 -430 161c-40 0 -79 -7 -115 -24l116 -660l-419 -73zM582 783
c0 -43 35 -78 78 -78s78 35 78 78s-35 78 -78 78s-78 -35 -78 -78z" />
    <glyph glyph-name="uniFEE2" unicode="&#x645;" horiz-adv-x="1352" arabic-form="final" 
d="M55 293c-13 73 0 146 35 213c34 65 111 141 177 174l-165 104l5 8c12 20 26 41 54 84c35 54 194 237 230 279c74 86 161 138 262 126c278 -33 483 -341 576 -512c18 -33 31 -58 38 -73c27 -58 -21 -177 -69 -268c15 -3 31 -4 48 -4l138 1c32 0 57 -25 57 -57v-311
c0 -31 -25 -57 -56 -57h-139c-247 0 -420 111 -541 324c-37 9 -72 13 -104 13c-41 0 -82 -5 -119 -22l116 -660l-418 -73zM712 884c-43 0 -79 -35 -79 -79s36 -80 79 -80c44 0 80 36 80 80s-36 79 -80 79z" />
    <glyph glyph-name="uniFEE3" unicode="&#x645;" horiz-adv-x="1180" arabic-form="initial" 
d="M-100 369c0 31 26 56 57 56h81c141 0 202 109 259 209c80 141 155 272 339 328c25 8 50 11 74 11c195 0 338 -241 405 -400c65 -154 80 -321 16 -437c-5 -9 -12 -17 -19 -26l-259 -304l-148 72c-109 53 -262 146 -327 204c-85 -50 -194 -82 -340 -82h-81
c-31 0 -57 26 -57 57v312zM712 484c-42 -7 -71 -47 -64 -89s46 -71 89 -64c42 7 71 46 64 89c-7 42 -47 71 -89 64z" />
    <glyph glyph-name="uniFEE4" unicode="&#x645;" horiz-adv-x="1440" arabic-form="medial" 
d="M-73 57v311c0 32 26 57 57 57h81c141 0 202 109 259 209c80 141 155 272 339 328c25 8 50 11 73 11c232 0 406 -348 451 -537c2 0 3 -1 5 -1c48 -10 96 -11 128 -11h150c31 -1 56 -26 56 -57v-310c0 -32 -25 -57 -56 -57h-150c-67 0 -187 9 -251 29l-189 -223l-148 72
c-94 46 -157 93 -215 136c-38 28 -72 53 -112 68c-85 -50 -194 -82 -340 -82h-81c-31 0 -57 25 -57 57zM739 484c-42 -7 -71 -47 -64 -89s46 -71 89 -64c42 7 71 46 64 89c-7 42 -47 71 -89 64z" />
    <glyph glyph-name="uni0646" unicode="&#x646;" horiz-adv-x="1548" arabic-form="isolated" 
d="M148 -128c-44 95 -67 211 -61 353c9 191 83 451 219 590l302 -297c-18 -18 -39 -60 -59 -116c-21 -60 -36 -128 -39 -194c-3 -70 6 -121 23 -158c36 -76 134 -89 209 -89c129 0 289 43 400 104c-25 193 -87 488 -159 659l390 164c62 -145 120 -375 153 -571
c41 -245 27 -473 -69 -550c-179 -142 -484 -230 -717 -230c-250 0 -480 95 -592 335zM567 918c0 104 85 189 189 189s189 -85 189 -189s-85 -189 -189 -189s-189 85 -189 189z" />
    <glyph glyph-name="uniFEE6" unicode="&#x646;" horiz-adv-x="1663" arabic-form="final" 
d="M165 -128c-123 264 -52 729 157 943l303 -297c-18 -18 -39 -60 -59 -116c-21 -60 -36 -128 -39 -194c-3 -70 6 -121 23 -158c36 -76 134 -89 209 -89c129 0 288 43 400 104c-10 73 -24 161 -43 251c-6 21 -11 42 -14 64c-28 127 -64 253 -102 344l390 164
c44 -102 86 -247 118 -393h1c11 -54 48 -66 84 -66h106c31 0 56 -25 56 -57v-315c0 -31 -25 -57 -56 -57h-137c-8 -108 -36 -192 -88 -233c-179 -142 -484 -230 -717 -230c-250 0 -480 95 -592 335zM584 918c0 104 84 189 189 189c104 0 189 -85 189 -189
s-85 -189 -189 -189c-105 0 -189 85 -189 189z" />
    <glyph glyph-name="uniFEE7" unicode="&#x646;" horiz-adv-x="791" arabic-form="initial" 
d="M-94 369c0 31 25 56 57 56h145c125 0 208 19 262 35c-4 173 -50 372 -100 536l405 123c35 -114 81 -293 104 -470c22 -172 23 -343 -30 -451c-70 -71 -145 -117 -225 -146c-126 -46 -265 -53 -416 -52h-145c-32 0 -57 25 -57 57v312zM277 1290c-104 0 -189 84 -189 189
c0 104 85 189 189 189c105 0 189 -85 189 -189c0 -105 -84 -189 -189 -189z" />
    <glyph glyph-name="uniFEE8" unicode="&#x646;" horiz-adv-x="813" arabic-form="medial" 
d="M-20 0c-32 0 -58 26 -58 58l3 312c0 30 24 57 55 56c54 -2 166 6 224 28c-6 138 -21 275 -61 408l405 123c40 -131 65 -266 74 -403c2 -29 4 -55 6 -79c34 -60 94 -78 165 -78h30c31 0 57 -25 57 -56v-312c0 -31 -26 -57 -57 -57h-30c-118 0 -238 25 -336 95
c-160 -82 -317 -97 -477 -95zM404 1168c-105 0 -189 85 -189 189c0 105 84 189 189 189c104 0 189 -85 189 -189s-85 -189 -189 -189z" />
    <glyph glyph-name="uni0648" unicode="&#x648;" horiz-adv-x="1276" arabic-form="isolated" 
d="M67 -89c90 32 131 46 170 59c91 31 171 59 241 85c-103 59 -181 131 -232 242c-44 96 -59 209 -32 337c26 123 95 241 204 321c94 69 215 109 360 98c302 -23 486 -254 486 -549v-207l-2 -25c-11 -94 -47 -186 -117 -276c-182 -233 -501 -339 -771 -428
c-67 -22 -138 -47 -167 -57zM740 635c-60 0 -108 -48 -108 -108c0 -59 48 -108 108 -108c59 0 108 49 108 108c0 60 -49 108 -108 108z" />
    <glyph glyph-name="uniFEEE" unicode="&#x648;" horiz-adv-x="1340" arabic-form="final" 
d="M73 -77c90 32 131 46 170 59c86 29 163 56 230 81c-170 94 -266 262 -266 457c0 175 74 342 217 447c94 69 215 109 360 98c302 -23 486 -254 486 -549v-92h105c32 0 57 -26 57 -57v-310c0 -32 -25 -57 -57 -57h-230c-185 -228 -496 -332 -765 -420
c-67 -22 -138 -47 -167 -57zM740 639c-60 0 -108 -49 -108 -108c0 -60 48 -108 108 -108c59 0 108 48 108 108s-49 108 -108 108z" />
    <glyph glyph-name="uni0647" unicode="&#x647;" horiz-adv-x="1144" arabic-form="isolated" 
d="M91 388c-13 67 -12 137 3 205c43 193 170 282 329 372c39 22 82 46 123 74l-16 48l-12 32h1l-2 5l402 138l70 -215l128 -385c35 -105 33 -213 1 -312c-71 -219 -294 -351 -518 -351c-244 0 -458 138 -509 389zM604 626c-58 0 -105 -47 -105 -105s47 -105 105 -105
s105 47 105 105s-47 105 -105 105z" />
    <glyph glyph-name="uniFEEA" unicode="&#x647;" horiz-adv-x="1298" arabic-form="final" 
d="M84 460c-13 69 -11 141 9 211c50 176 180 248 335 314c40 17 81 35 111 50l-37 112l404 132l241 -728c21 -64 -8 22 6 -22c12 -39 36 -105 101 -104h73c31 0 57 -25 57 -56v-312c0 -31 -26 -57 -57 -57h-118c-167 0 -271 64 -338 147c-88 -56 -195 -85 -299 -85
c-56 0 -109 8 -155 21c-174 49 -300 202 -333 377zM462 547c0 -58 47 -105 105 -105s105 47 105 105s-47 105 -105 105s-105 -47 -105 -105z" />
    <glyph glyph-name="uniFEEB" unicode="&#x647;" horiz-adv-x="1611" arabic-form="initial" 
d="M-16 0c-31 0 -56 26 -56 57v312c0 31 25 56 56 56h157c-133 205 -12 544 224 623c-30 10 -57 18 -83 25l106 410c93 -24 205 -65 322 -118c346 -157 794 -451 883 -835c30 -130 18 -262 -47 -393c-70 -140 -209 -226 -365 -226c-66 0 -131 17 -193 51
c-63 35 -137 61 -261 113l-19 8c-120 -45 -258 -71 -388 -82l-12 -1h-324zM591 781c-58 0 -105 -47 -105 -105s47 -105 105 -105s105 47 105 105s-47 105 -105 105zM984 420c0 -58 48 -105 105 -105c58 0 105 47 105 105s-47 105 -105 105c-57 0 -105 -47 -105 -105z" />
    <glyph glyph-name="uniFEEC" unicode="&#x647;" horiz-adv-x="1181" arabic-form="medial" 
d="M-15 0c-31 0 -57 26 -57 57v312c0 31 26 56 57 56h53c91 1 129 88 129 138v168l423 -10l-10 -513c-1 -26 10 -69 30 -82c15 56 41 109 82 158l239 263l85 -77c33 -30 71 -45 116 -45h75c31 0 56 -25 56 -56v-312c0 -31 -25 -57 -56 -57h-190c5 -77 66 -175 115 -212
l-222 -358c-262 119 -616 303 -721 592c-46 -14 -96 -22 -151 -22h-53z" />
    <glyph glyph-name="uni0629" unicode="&#x629;" horiz-adv-x="1143" arabic-form="isolated" 
d="M86 390c-13 66 -12 136 3 205c42 190 169 283 328 371c40 22 83 46 123 74l-27 80v1l-1 4l401 138l198 -600c35 -105 34 -213 1 -311c-73 -219 -291 -352 -517 -352c-244 0 -458 139 -509 390zM547 1434c-104 0 -189 85 -189 189s85 189 189 189c76 0 141 -44 171 -108
c30 64 96 108 171 108c105 0 189 -85 189 -189s-84 -189 -189 -189c-75 0 -141 44 -171 108c-30 -64 -95 -108 -171 -108zM598 628c-58 0 -105 -47 -105 -105s47 -105 105 -105s105 47 105 105s-47 105 -105 105z" />
    <glyph glyph-name="uniFBA5" unicode="&#x6c0;" horiz-adv-x="1344" arabic-form="final" 
d="M116 460c-13 69 -11 142 9 211c53 178 178 246 335 314c39 17 81 35 110 50l-36 112l403 132l241 -728c6 -19 8 -25 8 -25l-6 16c1 0 2 -3 5 -13c12 -39 36 -105 101 -104h95c31 0 56 -25 56 -56v-312c0 -31 -25 -57 -56 -57h-140c-168 0 -271 64 -339 147
c-87 -55 -205 -84 -306 -84c-240 0 -436 156 -480 397zM379 1618c0 104 85 189 189 189c76 0 141 -45 171 -109c30 64 96 109 171 109c105 0 189 -85 189 -189c0 -105 -85 -189 -189 -189c-75 0 -141 44 -171 108c-30 -64 -95 -108 -171 -108c-104 0 -189 84 -189 189z
M599 652c-58 0 -105 -47 -105 -105s47 -105 105 -105s105 47 105 105s-47 105 -105 105z" />
    <glyph glyph-name="uni064A" unicode="&#x64a;" horiz-adv-x="1718" arabic-form="isolated" 
d="M211 -260c-75 114 -116 261 -108 447c9 195 80 448 218 591l303 -297c-57 -60 -94 -230 -98 -310c-4 -91 12 -154 39 -196c44 -67 132 -83 206 -86c160 -6 348 47 501 127l-486 207c46 108 100 259 163 356c149 229 386 315 652 330l23 -423c-109 -7 -184 -28 -235 -59
l135 -57c220 -93 156 -355 195 -574l-116 -77c-230 -153 -564 -267 -848 -254c-216 10 -421 89 -544 275z" />
    <glyph glyph-name="uniFBFD" unicode="&#x6cc;" horiz-adv-x="1814" arabic-form="final" 
d="M240 -260c-75 114 -116 261 -108 447c9 191 82 452 219 591l302 -297c-57 -60 -94 -230 -97 -310c-3 -91 11 -154 38 -196c43 -66 133 -83 206 -86c155 -6 334 43 485 118c-166 80 -333 160 -499 239l183 382l165 -79c145 -69 280 -121 442 -123h289c31 0 57 -26 57 -57
v-312c0 -31 -26 -57 -57 -57h-151c9 -69 22 -136 34 -204l-116 -77c-229 -152 -564 -268 -848 -254c-214 10 -422 90 -544 275z" />
    <glyph glyph-name="uniFBFE" unicode="&#x6cc;" horiz-adv-x="800" arabic-form="initial" 
d="M-37 0c-32 0 -57 25 -57 57v312c0 31 25 56 57 56h145c125 0 208 19 262 35c-4 173 -50 372 -100 536l405 123c35 -114 81 -293 104 -470c22 -172 23 -343 -30 -451c-70 -71 -145 -117 -225 -146c-126 -46 -265 -53 -416 -52h-145zM-10 -399c0 105 85 189 190 189
c75 0 140 -44 171 -108c30 64 95 108 171 108c104 0 189 -84 189 -189c0 -104 -85 -189 -189 -189c-76 0 -141 45 -171 109c-31 -64 -96 -109 -171 -109c-105 0 -190 85 -190 189z" />
    <glyph glyph-name="uniFBFF" unicode="&#x6cc;" horiz-adv-x="813" arabic-form="medial" 
d="M-20 0c-32 0 -58 26 -58 58l3 312c0 30 24 57 55 56c54 -2 166 6 224 28c-6 138 -21 275 -61 408l405 123c40 -131 65 -266 74 -403c2 -29 4 -55 6 -79c34 -60 94 -78 165 -78h30c31 0 57 -25 57 -56v-312c0 -31 -26 -57 -57 -57h-30c-118 0 -238 25 -336 95
c-160 -82 -317 -97 -477 -95zM248 -545c-104 0 -189 85 -189 189s85 189 189 189c76 0 141 -44 171 -108c30 64 95 108 171 108c104 0 189 -85 189 -189s-85 -189 -189 -189c-76 0 -141 44 -171 108c-30 -64 -95 -108 -171 -108z" />
    <glyph glyph-name="uni0649" unicode="&#x649;" horiz-adv-x="1697" arabic-form="isolated" 
d="M190 -260c-75 114 -116 261 -108 447c9 195 80 448 218 591l303 -297c-57 -60 -94 -230 -98 -310c-4 -91 12 -154 39 -196c44 -67 132 -83 206 -86c160 -6 348 47 501 127l-486 207c46 108 100 259 163 356c149 229 386 315 652 330l23 -423c-109 -7 -184 -28 -235 -59
l135 -57c220 -93 156 -355 195 -574l-116 -77c-230 -153 -564 -267 -848 -254c-216 10 -421 89 -544 275z" />
    <glyph glyph-name="uniFEF0" unicode="&#x649;" horiz-adv-x="1755" arabic-form="final" 
d="M204 -260c-75 114 -116 261 -108 447c9 191 82 452 219 591l302 -297c-57 -60 -94 -230 -97 -310c-3 -91 11 -154 38 -196c43 -66 133 -83 206 -86c155 -6 334 43 485 118c-166 80 -333 160 -499 239l183 382l165 -79c145 -69 280 -121 442 -123h289c31 0 57 -26 57 -57
v-312c0 -31 -26 -57 -57 -57h-151c9 -69 22 -136 34 -204l-116 -77c-229 -152 -564 -268 -848 -254c-214 10 -422 90 -544 275z" />
    <glyph glyph-name=".notdef" horiz-adv-x="1024" 
d="M896 0h-768v1278h768v-1278zM256 1150v-1022h512v1022h-512z" />
    <glyph glyph-name="NULL" 
 />
    <glyph glyph-name="CR" horiz-adv-x="434" 
 />
    <glyph glyph-name="space" unicode=" " horiz-adv-x="363" 
 />
    <glyph glyph-name="exclam" unicode="!" horiz-adv-x="426" 
d="M77 389v892h296v-892h-296zM225 0c-70 0 -126 57 -126 126c0 70 56 127 126 127s126 -57 126 -127c0 -69 -56 -126 -126 -126z" />
    <glyph glyph-name="percent" unicode="%" horiz-adv-x="1425" 
d="M317 0l479 1489h287l-218 -676l-260 -813h-288zM944 217c0 107 87 193 194 193s194 -87 194 -193c0 -108 -87 -194 -194 -194s-194 86 -194 194zM89 1225c0 107 87 193 194 193s194 -86 194 -193s-87 -194 -194 -194s-194 87 -194 194z" />
    <glyph glyph-name="parenleft" unicode="(" horiz-adv-x="851" 
d="M168 134c-73 196 -107 399 -105 598c-2 199 32 401 105 597c69 186 172 365 313 529l322 -275c-205 -239 -319 -534 -317 -850v-3c-2 -315 112 -610 317 -849l-322 -276c-141 164 -244 343 -313 529z" />
    <glyph glyph-name="parenright" unicode=")" horiz-adv-x="878" 
d="M404 733c2 318 -112 610 -318 850l323 275c140 -164 244 -343 313 -529c73 -196 107 -398 105 -597c2 -199 -32 -402 -105 -598c-69 -186 -173 -365 -313 -529l-323 276c205 240 320 532 318 849v3z" />
    <glyph glyph-name="asterisk" unicode="*" horiz-adv-x="1016" 
d="M106 236c-14 14 -14 37 0 51l217 217l-217 217c-14 14 -14 37 0 51l139 139c7 7 16 11 26 11c9 0 18 -4 25 -11l217 -217l217 217c7 7 16 11 26 11c9 0 18 -4 25 -11l139 -139c14 -14 14 -37 0 -51l-217 -217l217 -217c14 -14 14 -37 0 -51l-139 -139
c-7 -7 -16 -10 -25 -10c-10 0 -19 3 -26 10l-217 217l-217 -217c-7 -7 -16 -10 -25 -10c-10 0 -19 3 -26 10z" />
    <glyph glyph-name="plus" unicode="+" horiz-adv-x="898" 
d="M114 329c-20 0 -36 16 -36 36v197c0 20 16 36 36 36h198v197c0 20 16 36 35 36h197c20 0 36 -16 36 -36v-197h198c19 0 35 -16 35 -36v-197c0 -20 -16 -36 -35 -36h-198v-197c0 -20 -16 -36 -36 -36h-197c-19 0 -35 16 -35 36v197h-198z" />
    <glyph glyph-name="comma" unicode="," horiz-adv-x="444" 
d="M102 -282l-49 184l200 54v72h-58c-47 0 -87 39 -87 87v218h336v-349c0 -104 -67 -192 -168 -219z" />
    <glyph glyph-name="hyphen" unicode="-" horiz-adv-x="1086" 
d="M212 386c-20 0 -36 16 -36 36v197c0 20 16 36 36 36h663c20 0 36 -16 36 -36v-197c0 -20 -16 -36 -36 -36h-663z" />
    <glyph glyph-name="period" unicode="." horiz-adv-x="474" 
d="M88 189c0 104 84 189 189 189c104 0 189 -85 189 -189s-85 -189 -189 -189c-105 0 -189 85 -189 189z" />
    <glyph glyph-name="slash" unicode="/" horiz-adv-x="816" 
d="M299 902l190 593h289l-219 -676l-263 -819h-288z" />
    <glyph glyph-name="zero" unicode="0" horiz-adv-x="968" 
d="M485 0c-227 0 -410 183 -410 410s183 410 410 410s410 -183 410 -410s-183 -410 -410 -410zM415 410c0 -37 33 -70 70 -70c39 0 70 31 70 70c0 40 -30 70 -70 70c-39 0 -70 -31 -70 -70z" />
    <glyph glyph-name="zero" unicode="&#x6f0;" horiz-adv-x="968" 
d="M485 0c-227 0 -410 183 -410 410s183 410 410 410s410 -183 410 -410s-183 -410 -410 -410zM415 410c0 -37 33 -70 70 -70c39 0 70 31 70 70c0 40 -30 70 -70 70c-39 0 -70 -31 -70 -70z" />
    <glyph glyph-name="zero" unicode="&#x660;" horiz-adv-x="968" 
d="M485 0c-227 0 -410 183 -410 410s183 410 410 410s410 -183 410 -410s-183 -410 -410 -410zM415 410c0 -37 33 -70 70 -70c39 0 70 31 70 70c0 40 -30 70 -70 70c-39 0 -70 -31 -70 -70z" />
    <glyph glyph-name="one" unicode="1" horiz-adv-x="696" 
d="M74 1433l422 43l148 -1433l-422 -43z" />
    <glyph glyph-name="one" unicode="&#x6f1;" horiz-adv-x="696" 
d="M74 1433l422 43l148 -1433l-422 -43z" />
    <glyph glyph-name="one" unicode="&#x661;" horiz-adv-x="696" 
d="M74 1433l422 43l148 -1433l-422 -43z" />
    <glyph glyph-name="two" unicode="2" horiz-adv-x="1229" 
d="M73 1433l422 43l39 -380h1c7 -35 64 -64 126 -80c27 -7 53 -9 75 -7c12 1 22 2 27 6c4 3 -9 1 -11 16l-45 389l422 48l45 -389c23 -201 -54 -339 -182 -421c-64 -41 -140 -63 -219 -71c-62 -6 -125 -1 -187 11l57 -555l-422 -43z" />
    <glyph glyph-name="two" unicode="&#x6f2;" horiz-adv-x="1229" 
d="M73 1433l422 43l39 -380h1c7 -35 64 -64 126 -80c27 -7 53 -9 75 -7c12 1 22 2 27 6c4 3 -9 1 -11 16l-45 389l422 48l45 -389c23 -201 -54 -339 -182 -421c-64 -41 -140 -63 -219 -71c-62 -6 -125 -1 -187 11l57 -555l-422 -43z" />
    <glyph glyph-name="two" unicode="&#x662;" horiz-adv-x="1229" 
d="M73 1433l422 43l39 -380h1c7 -35 64 -64 126 -80c27 -7 53 -9 75 -7c12 1 22 2 27 6c4 3 -9 1 -11 16l-45 389l422 48l45 -389c23 -201 -54 -339 -182 -421c-64 -41 -140 -63 -219 -71c-62 -6 -125 -1 -187 11l57 -555l-422 -43z" />
    <glyph glyph-name="three" unicode="3" horiz-adv-x="1744" 
d="M208 0l-148 1433l422 43l39 -380h1c10 -48 61 -76 107 -81c20 -2 41 3 58 12c13 7 25 19 37 35c-9 31 -17 61 -24 90c-12 47 -24 90 -32 105l377 194c29 -55 46 -120 65 -193c22 -86 49 -190 60 -194c34 -13 65 -26 91 -34c-7 93 -31 222 -50 375l-2 16l420 63l2 -16
c23 -182 51 -332 56 -460c11 -260 -93 -378 -275 -412c-23 -4 -47 -6 -71 -6c-100 0 -209 35 -327 80c-21 8 -40 18 -57 28c-117 -84 -210 -106 -356 -106c-10 0 -19 1 -28 2l57 -551z" />
    <glyph glyph-name="three" unicode="&#x6f3;" horiz-adv-x="1744" 
d="M208 0l-148 1433l422 43l39 -380h1c10 -48 61 -76 107 -81c20 -2 41 3 58 12c13 7 25 19 37 35c-9 31 -17 61 -24 90c-12 47 -24 90 -32 105l377 194c29 -55 46 -120 65 -193c22 -86 49 -190 60 -194c34 -13 65 -26 91 -34c-7 93 -31 222 -50 375l-2 16l420 63l2 -16
c23 -182 51 -332 56 -460c11 -260 -93 -378 -275 -412c-23 -4 -47 -6 -71 -6c-100 0 -209 35 -327 80c-21 8 -40 18 -57 28c-117 -84 -210 -106 -356 -106c-10 0 -19 1 -28 2l57 -551z" />
    <glyph glyph-name="three" unicode="&#x663;" horiz-adv-x="1744" 
d="M208 0l-148 1433l422 43l39 -380h1c10 -48 61 -76 107 -81c20 -2 41 3 58 12c13 7 25 19 37 35c-9 31 -17 61 -24 90c-12 47 -24 90 -32 105l377 194c29 -55 46 -120 65 -193c22 -86 49 -190 60 -194c34 -13 65 -26 91 -34c-7 93 -31 222 -50 375l-2 16l420 63l2 -16
c23 -182 51 -332 56 -460c11 -260 -93 -378 -275 -412c-23 -4 -47 -6 -71 -6c-100 0 -209 35 -327 80c-21 8 -40 18 -57 28c-117 -84 -210 -106 -356 -106c-10 0 -19 1 -28 2l57 -551z" />
    <glyph glyph-name="four" unicode="4" horiz-adv-x="1331" 
d="M38 1433l422 43l40 -380c2 -9 8 -16 19 -22c-2 46 3 92 15 137c25 95 79 182 159 253c101 89 297 152 474 169l70 -412c-81 -7 -227 -41 -263 -74c-16 -15 -26 -29 -30 -43c-3 -10 -2 -21 3 -32s12 -22 22 -33c90 8 182 20 267 34l67 -418c-159 -26 -336 -47 -502 -47
c-85 0 -170 5 -253 20l60 -585l-422 -43z" />
    <glyph glyph-name="four" unicode="&#x6f4;" horiz-adv-x="1331" 
d="M38 1433l422 43l40 -380c2 -9 8 -16 19 -22c-2 46 3 92 15 137c25 95 79 182 159 253c101 89 297 152 474 169l70 -412c-81 -7 -227 -41 -263 -74c-16 -15 -26 -29 -30 -43c-3 -10 -2 -21 3 -32s12 -22 22 -33c90 8 182 20 267 34l67 -418c-159 -26 -336 -47 -502 -47
c-85 0 -170 5 -253 20l60 -585l-422 -43z" />
    <glyph glyph-name="four" unicode="&#x664;" horiz-adv-x="1331" 
d="M38 1433l422 43l40 -380c2 -9 8 -16 19 -22c-2 46 3 92 15 137c25 95 79 182 159 253c101 89 297 152 474 169l70 -412c-81 -7 -227 -41 -263 -74c-16 -15 -26 -29 -30 -43c-3 -10 -2 -21 3 -32s12 -22 22 -33c90 8 182 20 267 34l67 -418c-159 -26 -336 -47 -502 -47
c-85 0 -170 5 -253 20l60 -585l-422 -43z" />
    <glyph glyph-name="five" unicode="5" horiz-adv-x="1697" 
d="M117 358c-35 97 -43 208 -24 318c23 134 87 269 194 377l357 360l-72 79l312 287l486 -529c100 -109 180 -250 230 -393c52 -149 69 -304 45 -435c-40 -222 -214 -412 -452 -412c-110 0 -217 44 -303 111c-78 -57 -166 -86 -255 -93c-118 -9 -220 19 -304 68
c-104 61 -175 154 -214 262zM511 604c-7 -38 -4 -74 7 -103c7 -19 16 -33 27 -40c13 -8 33 -11 62 -9c30 2 43 16 59 39c-8 21 -15 41 -22 61c-15 41 -28 77 -34 88l377 194c22 -41 38 -87 57 -139c34 -95 79 -222 122 -250c9 -6 16 -10 22 -11c21 0 37 49 40 66
c10 58 0 137 -29 219c-31 89 -80 177 -141 244l-127 138l-343 -347c-42 -42 -68 -96 -77 -150z" />
    <glyph glyph-name="five" unicode="&#x6f5;" horiz-adv-x="1697" 
d="M117 358c-35 97 -43 208 -24 318c23 134 87 269 194 377l357 360l-72 79l312 287l486 -529c100 -109 180 -250 230 -393c52 -149 69 -304 45 -435c-40 -222 -214 -412 -452 -412c-110 0 -217 44 -303 111c-78 -57 -166 -86 -255 -93c-118 -9 -220 19 -304 68
c-104 61 -175 154 -214 262zM511 604c-7 -38 -4 -74 7 -103c7 -19 16 -33 27 -40c13 -8 33 -11 62 -9c30 2 43 16 59 39c-8 21 -15 41 -22 61c-15 41 -28 77 -34 88l377 194c22 -41 38 -87 57 -139c34 -95 79 -222 122 -250c9 -6 16 -10 22 -11c21 0 37 49 40 66
c10 58 0 137 -29 219c-31 89 -80 177 -141 244l-127 138l-343 -347c-42 -42 -68 -96 -77 -150z" />
    <glyph glyph-name="five" unicode="&#x665;" horiz-adv-x="1697" 
d="M117 358c-35 97 -43 208 -24 318c23 134 87 269 194 377l357 360l-72 79l312 287l486 -529c100 -109 180 -250 230 -393c52 -149 69 -304 45 -435c-40 -222 -214 -412 -452 -412c-110 0 -217 44 -303 111c-78 -57 -166 -86 -255 -93c-118 -9 -220 19 -304 68
c-104 61 -175 154 -214 262zM511 604c-7 -38 -4 -74 7 -103c7 -19 16 -33 27 -40c13 -8 33 -11 62 -9c30 2 43 16 59 39c-8 21 -15 41 -22 61c-15 41 -28 77 -34 88l377 194c22 -41 38 -87 57 -139c34 -95 79 -222 122 -250c9 -6 16 -10 22 -11c21 0 37 49 40 66
c10 58 0 137 -29 219c-31 89 -80 177 -141 244l-127 138l-343 -347c-42 -42 -68 -96 -77 -150z" />
    <glyph glyph-name="six" unicode="6" horiz-adv-x="1410" 
d="M173 892c-93 125 -132 279 -84 438c95 314 425 418 722 422l6 -423c-81 -2 -294 -24 -323 -122c-5 -17 3 -39 19 -60c40 -55 119 -92 186 -92c50 0 103 21 144 74l214 273l334 -263l-894 -1139l-334 262l319 407c-120 43 -232 120 -309 223z" />
    <glyph glyph-name="six" unicode="&#x6f6;" horiz-adv-x="1410" 
d="M173 892c-93 125 -132 279 -84 438c95 314 425 418 722 422l6 -423c-81 -2 -294 -24 -323 -122c-5 -17 3 -39 19 -60c40 -55 119 -92 186 -92c50 0 103 21 144 74l214 273l334 -263l-894 -1139l-334 262l319 407c-120 43 -232 120 -309 223z" />
    <glyph glyph-name="six" unicode="&#x666;" horiz-adv-x="1410" 
d="M173 892c-93 125 -132 279 -84 438c95 314 425 418 722 422l6 -423c-81 -2 -294 -24 -323 -122c-5 -17 3 -39 19 -60c40 -55 119 -92 186 -92c50 0 103 21 144 74l214 273l334 -263l-894 -1139l-334 262l319 407c-120 43 -232 120 -309 223z" />
    <glyph glyph-name="seven" unicode="7" horiz-adv-x="1489" 
d="M39 1554l410 110l260 -968l348 899l395 -153l-479 -1240c-43 -112 -147 -192 -268 -192c-160 0 -286 127 -326 276z" />
    <glyph glyph-name="seven" unicode="&#x6f7;" horiz-adv-x="1489" 
d="M39 1554l410 110l260 -968l348 899l395 -153l-479 -1240c-43 -112 -147 -192 -268 -192c-160 0 -286 127 -326 276z" />
    <glyph glyph-name="seven" unicode="&#x667;" horiz-adv-x="1489" 
d="M39 1554l410 110l260 -968l348 899l395 -153l-479 -1240c-43 -112 -147 -192 -268 -192c-160 0 -286 127 -326 276z" />
    <glyph glyph-name="eight" unicode="8" horiz-adv-x="1511" 
d="M456 69l-395 153l480 1239c44 113 144 193 267 193c161 0 286 -128 326 -277l340 -1267l-410 -110l-260 968z" />
    <glyph glyph-name="eight" unicode="&#x6f8;" horiz-adv-x="1511" 
d="M456 69l-395 153l480 1239c44 113 144 193 267 193c161 0 286 -128 326 -277l340 -1267l-410 -110l-260 968z" />
    <glyph glyph-name="eight" unicode="&#x668;" horiz-adv-x="1511" 
d="M456 69l-395 153l480 1239c44 113 144 193 267 193c161 0 286 -128 326 -277l340 -1267l-410 -110l-260 968z" />
    <glyph glyph-name="nine" unicode="9" horiz-adv-x="1202" 
d="M631 603c-265 10 -577 168 -577 469c0 133 65 250 142 354c92 124 188 227 354 227c205 0 356 -172 394 -364l208 -1219l-418 -70zM440 1107c0 -58 47 -105 105 -105s105 47 105 105s-47 105 -105 105s-105 -47 -105 -105z" />
    <glyph glyph-name="nine" unicode="&#x6f9;" horiz-adv-x="1202" 
d="M631 603c-265 10 -577 168 -577 469c0 133 65 250 142 354c92 124 188 227 354 227c205 0 356 -172 394 -364l208 -1219l-418 -70zM440 1107c0 -58 47 -105 105 -105s105 47 105 105s-47 105 -105 105s-105 -47 -105 -105z" />
    <glyph glyph-name="nine" unicode="&#x669;" horiz-adv-x="1202" 
d="M631 603c-265 10 -577 168 -577 469c0 133 65 250 142 354c92 124 188 227 354 227c205 0 356 -172 394 -364l208 -1219l-418 -70zM440 1107c0 -58 47 -105 105 -105s105 47 105 105s-47 105 -105 105s-105 -47 -105 -105z" />
    <glyph glyph-name="colon" unicode=":" horiz-adv-x="430" 
d="M231 113c-80 0 -145 65 -145 146c0 80 65 145 145 145s146 -65 146 -145c0 -81 -66 -146 -146 -146zM86 695c0 80 65 146 145 146s146 -66 146 -146s-66 -145 -146 -145s-145 65 -145 145z" />
    <glyph glyph-name="equal" unicode="=" horiz-adv-x="1081" 
d="M210 572c-20 0 -36 17 -36 36v197c0 20 16 36 36 36h663c20 0 36 -16 36 -36v-197c0 -19 -16 -36 -36 -36h-663zM174 261v197c0 20 16 36 36 36h663c20 0 36 -16 36 -36v-197c0 -19 -16 -36 -36 -36h-663c-20 0 -36 17 -36 36z" />
    <glyph glyph-name="bracketleft" unicode="[" horiz-adv-x="921" 
d="M841 -565h-710v1876h710v-340h-370v-1196h370v-340z" />
    <glyph glyph-name="bracketright" unicode="]" horiz-adv-x="825" 
d="M68 1311h710v-1876h-710v340h370v1196h-370v340z" />
    <glyph glyph-name="braceleft" unicode="{" horiz-adv-x="919" 
d="M197 408h-113v340h111l2 -1c30 2 46 28 46 57v439c0 180 145 325 325 325h241v-340h-226v-424c0 -74 -22 -156 -69 -226c47 -71 69 -153 69 -227v-424h226v-340h-241c-180 0 -325 145 -325 325v439c0 31 -14 55 -46 57z" />
    <glyph glyph-name="braceright" unicode="}" horiz-adv-x="835" 
d="M54 1228v340h241c180 0 325 -145 325 -325v-439c0 -30 14 -55 46 -57l1 1h111v-340h-112c-33 -2 -46 -25 -46 -57v-439c0 -180 -145 -325 -325 -325h-241v340h226v424c0 74 22 156 69 227c-47 70 -69 152 -69 226v424h-226z" />
    <glyph glyph-name="guillemotleft" unicode="&#xab;" horiz-adv-x="854" 
d="M711 129l-340 400l340 393h87l-226 -393l232 -400h-93zM70 529l340 393h87l-226 -393l226 -400h-89z" />
    <glyph glyph-name="guillemotright" unicode="&#xbb;" horiz-adv-x="854" 
d="M50 129l232 400l-226 393h87l340 -393l-340 -400h-93zM357 922h87l340 -393l-338 -400h-89l226 400z" />
    <glyph glyph-name="multiply" unicode="&#xd7;" horiz-adv-x="946" 
d="M66 744c-14 14 -14 36 0 50l139 140c7 7 16 11 26 11c9 0 18 -4 25 -11l217 -218l217 218c7 7 16 11 26 11c9 0 18 -4 25 -11l139 -140c14 -14 14 -36 0 -50l-217 -218l217 -217c14 -14 14 -36 0 -50l-139 -140c-7 -7 -16 -10 -25 -10c-10 0 -19 3 -26 10l-217 217
l-217 -217c-7 -7 -16 -10 -25 -10c-10 0 -19 3 -26 10l-139 140c-14 14 -14 36 0 50l217 217z" />
    <glyph glyph-name="divide" unicode="&#xf7;" horiz-adv-x="851" 
d="M98 365c-20 0 -36 16 -36 36v197c0 20 16 36 36 36h663c20 0 36 -16 36 -36v-197c0 -20 -16 -36 -36 -36h-663zM308 809c0 67 54 121 121 121s122 -54 122 -121s-55 -121 -122 -121s-121 54 -121 121zM429 69c-67 0 -121 54 -121 121s54 121 121 121s122 -54 122 -121
s-55 -121 -122 -121z" />
    <glyph glyph-name="uni200C" unicode="&#x200c;" horiz-adv-x="32" 
 />
    <glyph glyph-name="uni200D" unicode="&#x200d;" horiz-adv-x="32" 
 />
    <glyph glyph-name="uni200E" unicode="&#x200e;" horiz-adv-x="32" 
d="M118 1228l95 -96l-95 -96l-24 20l63 62h-125v-1118h-32v1148h153l-59 58z" />
    <glyph glyph-name="uni200F" unicode="&#x200f;" horiz-adv-x="32" 
d="M32 1148v-1148h-32v1118h-124l60 -62l-20 -20l-99 96l99 96l20 -22l-58 -58h154z" />
    </font>
</defs>
</svg>
